<svg xmlns="http://www.w3.org/2000/svg" width="138" height="141" viewBox="0 0 138 141">
    <g fill="none" fill-rule="evenodd">
        <g fill="#3C89F9">
            <g>
                <path d="M56.408 103.468c-5.358-1.196-10.089-4.008-14.83-8.419-4.663-4.338-9.05-10.282-12.952-17.275C20.63 63.44 14.78 44.534 12.21 23.834c-.39-3.133-.687-6.31-.92-9.502-.27-3.706-5.824-6.067-5.52-1.897 3.2 43.927 20.781 80.857 42.165 93.342 21.822 12.74 46.45-2.601 61.015-36.824 2.626-6.17 4.88-12.987 6.722-20.169.82-3.198-4.546-7.11-5.49-3.43-9.741 37.976-32.307 62.906-53.774 58.114z" transform="translate(-1120 -940) scale(-1 1) rotate(75 -1187.792 -279.714)"/>
                <path d="M5.785 26.83L11.34 3.734 6.405 6.956l9.086 19.637c1.294 2.796 6.323-2.202 4.786-5.523L11.191 1.433c-.49-1.06-1.622-.706-2.212-.415-.99.489-2.25 1.671-2.723 3.636L.702 27.749c-.568 2.362.779 3.11 1.678 2.949 1.201-.216 2.842-1.524 3.405-3.868" transform="translate(-1120 -940) scale(-1 1) rotate(75 -1187.792 -279.714)"/>
                <path d="M11.773 11.956L6.278 11.956 5.773 7.662 7.858 2.952 9.614 1.956 11.452 3.915z" transform="translate(-1120 -940) scale(-1 1) rotate(75 -1187.792 -279.714)"/>
            </g>
        </g>
    </g>
</svg>
