<svg xmlns="http://www.w3.org/2000/svg" width="18" height="16" viewBox="0 0 18 16">
    <g fill="none" fill-rule="evenodd">
        <g fill="#FFF">
            <g>
                <g>
                    <g>
                        <g>
                            <g>
                                <path d="M13.762 8.924l-.383.377-.929.873-2.696 2.496-1.722 1.586-5.52-5.281-.153-.153-.077-.084-.076-.09-.043-.052c-.494-.611-.781-1.366-.802-2.356-.04-1.862 1.522-3.536 3.438-3.572.816-.015 1.496.148 2.04.438.293.156.502.322.635.464l.052.06-1.056.84-.035-.034c-.044-.037-.125-.094-.246-.159-.337-.18-.784-.287-1.364-.276-1.15.021-2.129 1.072-2.105 2.21.015.695.196 1.17.509 1.557l.09.106.107.11L8.05 12.41l3.53-3.265.984-.927.308-.31c.095-.096.169-.176.238-.26.318-.389.49-.818.49-1.408 0-1.275-.819-2.24-2.307-2.24-.49 0-.787.14-1.398.621l-.112.093-.137.12-.25.232-.305.291-1.123 1.118-.7.701c-.161.16-.124.666.173.889.366.274.655.283.833.156l.05-.04.182-.165.28-.266.265-.256.745-.735.978-.982.978.927-.693.697-1.005.996-.412.398-.313.29-.12.106-.095.078-.038.029c-.676.482-1.625.451-2.46-.173-.948-.71-1.055-2.156-.312-2.889l1.471-1.474.492-.48.308-.292.258-.232.075-.065.134-.11c.831-.656 1.387-.916 2.25-.916 2.302 0 3.668 1.61 3.668 3.573 0 .912-.288 1.63-.79 2.242l-.117.133-.291.31z" transform="translate(-61 -884) translate(0 104) translate(0 763) translate(61 14) translate(0 3) translate(.34)"/>
                            </g>
                        </g>
                    </g>
                </g>
            </g>
        </g>
    </g>
</svg>
