<svg xmlns="http://www.w3.org/2000/svg" width="17" height="16" viewBox="0 0 17 16">
    <g fill="none" fill-rule="evenodd">
        <g fill="#FFF">
            <g>
                <g>
                    <g>
                        <g>
                            <g>
                                <path d="M11.6 9.125c-.662 0-1.2-.538-1.2-1.2 0-.662.538-1.2 1.2-1.2.662 0 1.2.538 1.2 1.2 0 .662-.538 1.2-1.2 1.2M4.4 12.8c-.662 0-1.2-.538-1.2-1.2 0-.662.538-1.2 1.2-1.2 1.586 0 1.586 2.4 0 2.4m0-7.2c-.662 0-1.2-.538-1.2-1.2 0-.662.538-1.2 1.2-1.2 1.586 0 1.586 2.4 0 2.4m7.2-.075c-.733 0-1.38.335-1.82.853L6.775 4.643C6.927 3.151 5.761 2 4.4 2 3.075 2 2 3.075 2 4.4s1.075 2.4 2.4 2.4c.808 0 1.52-.403 1.954-1.015l2.893 1.67c-.064.327-.063.642.006.967l-2.968 1.709C5.845 9.568 5.169 9.2 4.4 9.2 3.075 9.2 2 10.275 2 11.6S3.075 14 4.4 14c1.417 0 2.594-1.243 2.363-2.76l3.034-1.746c.44.505 1.08.831 1.803.831 1.325 0 2.4-1.075 2.4-2.4s-1.075-2.4-2.4-2.4" transform="translate(-261 -884) translate(0 104) translate(0 763) translate(261 14) translate(0 3) translate(.5)"/>
                            </g>
                        </g>
                    </g>
                </g>
            </g>
        </g>
    </g>
</svg>
