<svg xmlns="http://www.w3.org/2000/svg" width="60" height="75" viewBox="0 0 60 75">
    <g fill="none" fill-rule="evenodd">
        <g fill="#FFF">
            <g>
                <path d="M55.518 49.736c-.12.42-.59 1.186-1.045 1.927-.873 1.423-1.341 2.268-1.471 2.936-.059.302-.042.613.049.906l2.357 7.608-21.977 7.185c-.867-2.258-3.008-7.384-4.723-9.17-6.672-6.949-12.946-12.093-20.342-16.68-1.819-1.129-3.411-2.564-4.059-3.656-.02-.035-.042-.069-.064-.102-.15-.218-.267-.451-.35-.695-.008-.035-.017-.07-.028-.105-.008-.028-.017-.054-.026-.08-.158-.458-.204-.847-.138-1.192.03-.157.088-.31.173-.457.037-.065.07-.132.1-.2.323-.76.951-1.34 1.724-1.592 1.183-.387 2.115-.29 3.116.322 3.697 2.26 6.196 3.932 8.35 5.587l.137.103c.564.416 1.316.474 1.933.147.62-.325 1.003-.975.988-1.679-.034-1.508-.597-3.967-1.678-7.313 0 0-8.298-25.528-8.426-25.927-.506-1.568.35-3.258 1.908-3.767 1.557-.51 3.237.352 3.743 1.92l.404 1.223c.853 2.572 2.955 8.916 4.464 13.648l-.01.004 2.56 7.93 3.494-1.143-1.79-5.544c.352-.717.973-1.272 1.74-1.523 1.354-.442 2.834.147 3.518 1.403.027.05.057.099.089.146.23.342.404.694.518 1.049l.302.933c.001.006.004.01.006.016l1.986 6.15 3.493-1.142-1.79-5.544c.35-.723.974-1.283 1.746-1.536.907-.296 1.91-.13 2.683.444.049.036.098.07.15.1.558.335.939.822 1.164 1.49.021.06.045.12.072.179.016.036.032.079.048.118l.395 1.223.004.014.003.009 2.01 6.221 3.492-1.142-1.784-5.525c.409-.728 1.18-1.123 1.807-1.328l.166-.043.107-.032c.533-.185 1.063-.178 1.572-.001.212.074.455.217.702.413.028.023.056.044.085.064.374.265.674.598.89.992.023.042.048.084.075.125.283.432.509.894.652 1.336l2 6.194c.176.51.357 1.024.54 1.542 1.711 4.86 3.651 10.37 2.186 15.511zm1.275-16.745c-.18-.512-.358-1.019-.52-1.486l-1.989-6.158c-.236-.732-.595-1.481-1.04-2.17-.471-.836-1.13-1.57-1.915-2.134-.562-.442-1.148-.77-1.741-.977-1.249-.434-2.582-.446-3.86-.036l-.013.004c-.1.025-.2.051-.3.084-.81.265-1.53.629-2.147 1.08-.507-.79-1.174-1.452-1.979-1.95-1.714-1.236-3.923-1.585-5.925-.93-.832.272-1.589.702-2.237 1.254-1.62-2.526-4.753-3.67-7.632-2.729-.69.226-1.33.56-1.898.985-1.442-4.476-3.182-9.727-3.94-12.012-.218-.658-.36-1.085-.395-1.196C18.13 1.114 14.374-.811 10.89.328 7.407 1.467 5.493 5.246 6.625 8.75l8.428 25.931c.24.742.44 1.405.61 1.994-1.414-.949-3.024-1.971-4.942-3.144-1.903-1.163-3.975-1.392-6.159-.678-1.745.57-3.169 1.862-3.92 3.552-.262.476-.446.985-.547 1.514-.185.965-.1 1.985.25 3.032.014.048.027.097.043.146.186.578.454 1.128.795 1.637 1.428 2.368 4.38 4.315 5.256 4.858 7.124 4.419 13.178 9.385 19.628 16.103 1.15 1.196 3.424 6.396 4.23 8.718.093.266.193.552.299.848L31.219 75l2.565-.931 23.083-7.547L60 65.568l-3.246-10.525c.17-.32.453-.801.844-1.44.64-1.04 1.19-1.938 1.45-2.848 1.79-6.28-.359-12.38-2.255-17.764z" transform="translate(-1012 -576) translate(1012 576)"/>
            </g>
        </g>
    </g>
</svg>
