<svg xmlns="http://www.w3.org/2000/svg" width="24" height="25" viewBox="0 0 24 25">
    <g fill="none" fill-rule="evenodd">
        <g>
            <g>
                <g>
                    <g>
                        <g>
                            <path fill="#000" d="M1 1H23V23H1z" transform="translate(-1185 -876) translate(0 135) translate(268 462) translate(710) translate(207 279)"/>
                            <path stroke="#FFF" stroke-width="2" d="M10.291 6.074s-.906-1.117-3.215-1.072c-2.31.044-4.121 2.145-4.075 4.337.045 2.19 1.084 3.108 1.618 3.63L11.826 20s7.005-6.574 7.486-7.098C19.793 12.377 21 11.439 21 9.36 21 7.393 19.777 5 16.607 5c-1.131 0-1.822.46-2.683 1.153-.86.693-3.07 3.026-3.945 3.907-.594.597-.639 2.071.357 2.832.996.76 1.902.625 2.422.246.52-.38 3.805-3.778 3.805-3.778" transform="translate(-1185 -876) translate(0 135) translate(268 462) translate(710) translate(207 279)"/>
                        </g>
                    </g>
                </g>
            </g>
        </g>
    </g>
</svg>
