<svg xmlns="http://www.w3.org/2000/svg" width="36" height="36" viewBox="0 0 36 36">
    <g fill="none" fill-rule="evenodd">
        <g fill="#FFF">
            <g>
                <g>
                    <g>
                        <g>
                            <path d="M31.18 19.118l-.9.911-2.186 2.109-6.343 6.03L17.7 32 4.71 19.241l-.361-.37-.18-.202-.179-.216-.101-.128c-1.162-1.476-1.84-3.3-1.888-5.692-.094-4.498 3.58-8.544 8.089-8.63 1.922-.037 3.522.359 4.8 1.058.69.377 1.181.778 1.494 1.122l.124.144-2.486 2.028-.083-.08c-.103-.089-.293-.228-.577-.383-.792-.434-1.845-.694-3.211-.668-2.703.052-5.009 2.59-4.95 5.341.033 1.676.46 2.824 1.196 3.76l.21.256.252.268L17.74 27.54l8.307-7.887 2.316-2.242.725-.75c.223-.23.396-.424.559-.628.748-.937 1.153-1.975 1.153-3.4 0-3.08-1.926-5.412-5.428-5.412-1.153 0-1.852.337-3.29 1.501l-.264.224-.322.291-.59.56-.715.704-2.644 2.7-1.645 1.694c-.38.385-.292 1.61.407 2.147.86.662 1.54.684 1.96.377l.116-.097.43-.399.659-.641.622-.618 1.753-1.776 2.301-2.374 2.301 2.24-1.63 1.684-2.365 2.407-.969.961-.736.703-.281.254-.224.188c-.033.026-.063.05-.091.07-1.59 1.166-3.824 1.09-5.788-.418-2.23-1.715-2.482-5.21-.735-6.979l3.463-3.562L18.253 7.9l.724-.703.606-.562c.06-.055.12-.107.176-.156l.316-.267C22.031 4.63 23.339 4 25.372 4 30.785 4 34 7.892 34 12.634c0 2.203-.677 3.937-1.859 5.417l-.274.321-.687.746z" transform="translate(-895 -633) translate(0 135) translate(268 486) translate(355) translate(272 12)"/>
                        </g>
                    </g>
                </g>
            </g>
        </g>
    </g>
</svg>
