<svg xmlns="http://www.w3.org/2000/svg" width="24" height="24" viewBox="0 0 24 24">
    <g fill="none" fill-rule="evenodd">
        <g fill="#000">
            <g>
                <path d="M6.667 10V8c0-3.314 2.387-6 5.333-6s5.333 2.686 5.333 6v2H20v12H4V12v-2h2.667zM11 16.73V19h2v-2.27c.784-.453 1.166-1.375.932-2.25-.234-.874-1.027-1.482-1.932-1.482s-1.698.608-1.932 1.482c-.234.875.148 1.797.932 2.25zM8.5 7.52V10h7.1V7.52c0-2.054-1.59-3.72-3.55-3.72-1.96 0-3.55 1.666-3.55 3.72z" transform="translate(-293 -554) translate(293 554)"/>
            </g>
        </g>
    </g>
</svg>
