<svg xmlns="http://www.w3.org/2000/svg" width="32" height="32" viewBox="0 0 32 32">
    <g fill="none" fill-rule="evenodd">
        <g fill-rule="nonzero">
            <g>
                <g transform="translate(-1633 -2011) translate(140 1975) translate(1493 36)">
                    <circle cx="16" cy="16" r="16" fill="#454545"/>
                    <path fill="#FFF" d="M13.787 19.307V12.64l5.52 3.36-5.52 3.307zm8.24-9.28c-1.054-.067-3.72-.094-6.027-.094s-4.96 0-6.027.094c-1.066.093-1.573.213-2.053 1.066-.64 1.552-.895 3.235-.747 4.907-.149 1.667.107 3.346.747 4.893.48.854 1 1.014 2.053 1.08 1.054.067 3.72.094 6.027.094s4.96 0 6.027-.094c1.066-.093 1.573-.226 2.053-1.08.64-1.547.896-3.226.747-4.893.148-1.672-.108-3.355-.747-4.907-.48-.84-1-1-2.053-1.066z"/>
                </g>
            </g>
        </g>
    </g>
</svg>
