<svg xmlns="http://www.w3.org/2000/svg" width="24" height="24" viewBox="0 0 24 24">
    <g fill="none" fill-rule="evenodd">
        <g fill="#000">
            <g>
                <path d="M12 4.5c-4.773 0-8.849 2.969-10.5 7.16 1.651 4.19 5.727 7.158 10.5 7.158s8.849-2.968 10.5-7.159C20.849 7.47 16.773 4.5 12 4.5zm0 11.932c-2.635 0-4.773-2.138-4.773-4.773 0-2.634 2.138-4.773 4.773-4.773s4.773 2.139 4.773 4.773c0 2.635-2.138 4.773-4.773 4.773zm0-7.637c-1.585 0-2.864 1.28-2.864 2.864 0 1.585 1.28 2.864 2.864 2.864 1.585 0 2.864-1.28 2.864-2.864 0-1.584-1.28-2.864-2.864-2.864z" transform="translate(-875 -554) translate(875 554)"/>
            </g>
        </g>
    </g>
</svg>
