<svg xmlns="http://www.w3.org/2000/svg" width="32" height="32" viewBox="0 0 32 32">
    <g fill="none" fill-rule="evenodd">
        <g fill-rule="nonzero">
            <g>
                <g transform="translate(-1681 -2011) translate(140 1975) translate(1541 36)">
                    <circle cx="16.08" cy="16.08" r="15.92" fill="#FFF"/>
                    <path fill="#454545" d="M32 16.04C32 7.186 24.832 0 16 0S0 7.186 0 16.04c0 7.764 5.504 14.228 12.8 15.72V20.851H9.6V16.04h3.2v-4.01c0-3.096 2.512-5.614 5.6-5.614h4v4.812h-3.2c-.88 0-1.6.722-1.6 1.604v3.208h4.8v4.812h-4.8V32c8.08-.802 14.4-7.635 14.4-15.96z"/>
                </g>
            </g>
        </g>
    </g>
</svg>
