<svg xmlns="http://www.w3.org/2000/svg" width="32" height="32" viewBox="0 0 32 32">
    <g fill="none" fill-rule="evenodd">
        <g fill="#1D9BF0">
            <g>
                <g>
                    <g>
                        <g>
                            <g>
                                <path d="M28 0c2.21 0 4 1.79 4 4v24c0 2.21-1.79 4-4 4H4c-2.21 0-4-1.79-4-4V4c0-2.21 1.79-4 4-4h24zm-8.153 8c-2.266 0-4.104 1.809-4.104 4.039 0 .317.036.625.107.92-3.41-.168-6.434-1.775-8.458-4.22-.353.598-.556 1.291-.556 2.03 0 1.402.725 2.64 1.826 3.363-.673-.02-1.305-.202-1.858-.505l-.001.051c0 1.957 1.415 3.59 3.292 3.96-.345.092-.707.142-1.082.142-.264 0-.521-.026-.771-.073.522 1.605 2.037 2.773 3.833 2.806-1.405 1.083-3.174 1.729-5.096 1.729-.331 0-.658-.019-.979-.056C7.816 23.33 9.972 24 12.29 24c7.547 0 11.675-6.155 11.675-11.492 0-.175-.004-.35-.012-.522.801-.57 1.498-1.282 2.047-2.092-.735.322-1.526.538-2.356.636.847-.5 1.497-1.291 1.804-2.234-.793.462-1.67.799-2.606.98C22.094 8.491 21.027 8 19.847 8z" transform="translate(-1578 -1064) translate(268 378) translate(0 496) translate(1178 175) translate(44 15) translate(88)"/>
                            </g>
                        </g>
                    </g>
                </g>
            </g>
        </g>
    </g>
</svg>
