<svg xmlns="http://www.w3.org/2000/svg" width="32" height="32" viewBox="0 0 32 32">
    <g fill="none" fill-rule="evenodd">
        <g fill="#7F7F7F">
            <g>
                <g>
                    <path d="M23.2 18.25c-1.324 0-2.4-1.076-2.4-2.4 0-1.324 1.076-2.4 2.4-2.4 1.324 0 2.4 1.076 2.4 2.4 0 1.324-1.076 2.4-2.4 2.4M8.8 25.6c-1.324 0-2.4-1.076-2.4-2.4 0-1.324 1.076-2.4 2.4-2.4 3.172 0 3.173 4.8 0 4.8m0-14.4c-1.324 0-2.4-1.076-2.4-2.4 0-1.324 1.076-2.4 2.4-2.4 3.172 0 3.173 4.8 0 4.8m14.4-.15c-1.465 0-2.76.67-3.64 1.705l-6.01-3.469C13.855 6.303 11.524 4 8.8 4 6.15 4 4 6.15 4 8.8s2.15 4.8 4.8 4.8c1.616 0 3.038-.805 3.908-2.03l5.787 3.342c-.13.652-.126 1.281.01 1.933L12.57 20.26C11.691 19.136 10.337 18.4 8.8 18.4c-2.65 0-4.8 2.15-4.8 4.8S6.15 28 8.8 28c2.834 0 5.189-2.486 4.727-5.521l6.067-3.491c.88 1.01 2.161 1.662 3.606 1.662 2.65 0 4.8-2.15 4.8-4.8s-2.15-4.8-4.8-4.8" transform="translate(-1571 -802) translate(1555 793) translate(16 9)"/>
                </g>
            </g>
        </g>
    </g>
</svg>
