<svg xmlns="http://www.w3.org/2000/svg" width="24" height="24" viewBox="0 0 24 24">
    <g fill="none" fill-rule="evenodd">
        <g fill="#7F7F7F">
            <g>
                <g>
                    <g>
                        <g>
                            <path d="M10.636 1.85c2.092 0 3.787 1.694 3.787 3.786v9.546c0 1.337-1.086 2.423-2.423 2.423s-2.423-1.086-2.423-2.423V6.545l.15-.15h1.364l.15.15v8.637c0 .417.342.759.759.759s.76-.342.76-.76V5.637c0-1.171-.952-2.122-2.124-2.122-1.171 0-2.122.95-2.122 2.122V17c0 1.926 1.56 3.486 3.486 3.486 1.926 0 3.486-1.56 3.486-3.486V6.545l.15-.15H17l.15.15V17c0 2.846-2.304 5.15-5.15 5.15-2.846 0-5.15-2.304-5.15-5.15V5.636c0-2.092 1.694-3.786 3.786-3.786z" transform="translate(-20 -800) translate(20 146) translate(0 654) rotate(45 12 12)"/>
                        </g>
                    </g>
                </g>
            </g>
        </g>
    </g>
</svg>
