<svg xmlns="http://www.w3.org/2000/svg" width="24" height="24" viewBox="0 0 24 24">
    <g fill="none" fill-rule="evenodd">
        <g fill="#000" fill-rule="nonzero">
            <g>
                <g>
                    <path d="M3.429 11.426C.893 10.223-.47 7.424.147 4.686.763 1.95 3.194.006 6 .006c2.806 0 5.237 1.944 5.853 4.682.617 2.737-.746 5.536-3.282 6.739v2.288H3.43v-2.288zm0 3.145H8.57v2.572H3.43V14.57zM5.143 10.2V12h1.714v-1.8c2.156-.44 3.628-2.44 3.407-4.63C10.043 3.381 8.2 1.715 6 1.715S1.957 3.381 1.736 5.57c-.221 2.19 1.251 4.19 3.407 4.63z" transform="translate(-268 -417) translate(268 415) translate(0 2) translate(6 3)"/>
                </g>
            </g>
        </g>
    </g>
</svg>
