<svg xmlns="http://www.w3.org/2000/svg" width="32" height="32" viewBox="0 0 32 32">
    <g fill="none" fill-rule="evenodd">
        <g fill-rule="nonzero">
            <g>
                <g transform="translate(-1729 -2011) translate(140 1975) translate(1589 36)">
                    <circle cx="16" cy="16" r="16" fill="#454545"/>
                    <path fill="#FFF" d="M23.333 19.387c0 2.209-1.79 4-4 4h-6.72c-2.209 0-4-1.791-4-4v-6.774c0-2.209 1.791-4 4-4h6.774c2.209 0 4 1.791 4 4v6.774h-.054zm-4-12.414h-6.72c-3.115 0-5.64 2.525-5.64 5.64v6.774c0 3.115 2.525 5.64 5.64 5.64h6.774c1.495 0 2.93-.595 3.988-1.652 1.057-1.058 1.652-2.493 1.652-3.988v-6.774c0-3.115-2.525-5.64-5.64-5.64h-.054z"/>
                    <path fill="#FFF" d="M16 18.827c-1.561 0-2.827-1.266-2.827-2.827S14.44 13.173 16 13.173 18.827 14.44 18.827 16 17.56 18.827 16 18.827zm0-7.347c-2.496 0-4.52 2.024-4.52 4.52 0 2.496 2.024 4.52 4.52 4.52 2.496 0 4.52-2.024 4.52-4.52 0-1.199-.476-2.348-1.324-3.196-.848-.848-1.997-1.324-3.196-1.324zM20.853 10.547c.332 0 .6.268.6.6 0 .331-.268.6-.6.6-.331 0-.6-.269-.6-.6 0-.332.269-.6.6-.6z"/>
                </g>
            </g>
        </g>
    </g>
</svg>
