<svg xmlns="http://www.w3.org/2000/svg" width="16" height="16" viewBox="0 0 16 16">
    <g fill="none" fill-rule="evenodd">
        <g fill="#FF647C">
            <g>
                <g>
                    <g>
                        <path d="M7.4 11h1.2V7.4H7.4V11zM8 2C4.7 2 2 4.7 2 8s2.7 6 6 6 6-2.7 6-6-2.7-6-6-6zm0 10.8c-2.64 0-4.8-2.16-4.8-4.8 0-2.64 2.16-4.8 4.8-4.8 2.64 0 4.8 2.16 4.8 4.8 0 2.64-2.16 4.8-4.8 4.8zm-.6-6.6h1.2V5H7.4v1.2z" transform="translate(-685 -1344) translate(268 453) translate(417 890) translate(0 1)"/>
                    </g>
                </g>
            </g>
        </g>
    </g>
</svg>
