<svg xmlns="http://www.w3.org/2000/svg" width="24" height="24" viewBox="0 0 24 24">
    <g fill="none" fill-rule="evenodd">
        <g fill="#FFF">
            <g>
                <g>
                    <g>
                        <g>
                            <path d="M20.238 13.386l-.563.566-1.366 1.309-3.965 3.744-2.532 2.379-8.118-7.922-.226-.23-.112-.125-.112-.134-.063-.08c-.726-.915-1.15-2.048-1.18-3.533-.059-2.793 2.238-5.305 5.056-5.358 1.2-.023 2.201.223 3 .657.43.234.738.483.934.697l.077.089-1.554 1.26-.051-.05c-.065-.056-.183-.142-.361-.239-.495-.27-1.153-.43-2.007-.414-1.69.032-3.13 1.608-3.094 3.316.021 1.04.288 1.753.748 2.334l.131.16.158.165 6.8 6.638 5.191-4.897 1.448-1.392.453-.465c.14-.144.247-.264.35-.39.467-.582.72-1.226.72-2.11C20 7.447 18.796 6 16.607 6c-.72 0-1.157.209-2.056.932l-.165.139-.2.18-.37.348-.447.437-1.652 1.676-1.028 1.052c-.238.24-.183 1 .254 1.333.538.411.963.425 1.225.234l.073-.06.268-.247.412-.399.389-.384 1.095-1.102 1.44-1.474 1.437 1.39-1.019 1.047-1.478 1.493-.606.598-.46.436-.176.157-.14.118-.056.043c-.994.724-2.39.677-3.618-.26-1.394-1.065-1.55-3.234-.459-4.333l2.164-2.211.724-.721.453-.437.378-.348.11-.097.198-.166C14.519 4.391 15.337 4 16.607 4 19.991 4 22 6.416 22 9.36c0 1.368-.423 2.445-1.162 3.364l-.171.2-.43.462z" transform="translate(-1279 -549) translate(0 76) translate(1120.5 452) translate(158.5 20) translate(0 1)"/>
                        </g>
                    </g>
                </g>
            </g>
        </g>
    </g>
</svg>
