<svg xmlns="http://www.w3.org/2000/svg" width="24" height="24" viewBox="0 0 24 24">
    <g fill="none" fill-rule="evenodd">
        <g fill="#FFF">
            <g>
                <g>
                    <g>
                        <g>
                            <path d="M17.4 13.688c-.993 0-1.8-.808-1.8-1.8 0-.993.807-1.8 1.8-1.8s1.8.807 1.8 1.8c0 .992-.807 1.8-1.8 1.8M6.6 19.2c-.993 0-1.8-.807-1.8-1.8s.807-1.8 1.8-1.8c2.379 0 2.38 3.6 0 3.6m0-10.8c-.993 0-1.8-.807-1.8-1.8s.807-1.8 1.8-1.8c2.379 0 2.38 3.6 0 3.6m10.8-.113c-1.099 0-2.07.504-2.73 1.28l-4.507-2.603C10.391 4.728 8.643 3 6.6 3 4.612 3 3 4.612 3 6.6s1.612 3.6 3.6 3.6c1.212 0 2.279-.604 2.931-1.522l4.34 2.506c-.097.49-.094.96.008 1.45l-4.452 2.562C8.768 14.352 7.753 13.8 6.6 13.8c-1.988 0-3.6 1.612-3.6 3.6S4.612 21 6.6 21c2.126 0 3.892-1.865 3.545-4.14l4.55-2.619c.66.758 1.621 1.247 2.705 1.247 1.988 0 3.6-1.612 3.6-3.6 0-1.989-1.612-3.6-3.6-3.6" transform="translate(-1405 -549) translate(0 76) translate(1120.5 452) translate(284.5 20) translate(0 1)"/>
                        </g>
                    </g>
                </g>
            </g>
        </g>
    </g>
</svg>
