<svg xmlns="http://www.w3.org/2000/svg" width="24" height="24" viewBox="0 0 24 24">
    <g fill="none" fill-rule="evenodd">
        <g fill="#3C89F9">
            <g>
                <g>
                    <g>
                        <path d="M12.6 19.2h2.7V21H8.1v-1.8h2.7v-2.307C7.524 16.525 4.5 13.8 4.5 10.2h1.8c0 2.705 2.88 5.322 5.666 5.2 2.608-.114 5.134-2.495 5.134-5.2h1.8c0 3.6-3.024 6.325-6.3 6.693V19.2zm2.7-9.605V3H8.1v6.75c0 2.105 1.806 3.788 3.954 3.583 1.872-.178 3.246-1.858 3.246-3.738z" transform="translate(-553 -471) translate(268 453) translate(285 18)"/>
                    </g>
                </g>
            </g>
        </g>
    </g>
</svg>
