<svg xmlns="http://www.w3.org/2000/svg" width="32" height="32" viewBox="0 0 32 32">
    <g fill="none" fill-rule="evenodd">
        <g fill="#FFF">
            <g>
                <g>
                    <g>
                        <path d="M16 3C8.824 3 3 8.824 3 16s5.824 13 13 13 13-5.824 13-13S23.176 3 16 3zm0 3.9c2.158 0 3.9 1.742 3.9 3.9s-1.742 3.9-3.9 3.9-3.9-1.742-3.9-3.9 1.742-3.9 3.9-3.9zm0 18.46c-3.25 0-6.123-1.664-7.8-4.186.039-2.587 5.2-4.004 7.8-4.004 2.587 0 7.761 1.417 7.8 4.004-1.677 2.522-4.55 4.186-7.8 4.186z" transform="translate(-1737 -649) translate(140 625) translate(1573) translate(24 24)"/>
                    </g>
                </g>
            </g>
        </g>
    </g>
</svg>
