<svg xmlns="http://www.w3.org/2000/svg" width="20" height="20" viewBox="0 0 20 20">
    <defs>
        <filter id="u0tsbhna4a">
            <feColorMatrix in="SourceGraphic" values="0 0 0 0 0.498039 0 0 0 0 0.498039 0 0 0 0 0.498039 0 0 0 1.000000 0"/>
        </filter>
    </defs>
    <g fill="none" fill-rule="evenodd">
        <g>
            <g>
                <g filter="url(#u0tsbhna4a)" transform="translate(-1239 -683) translate(268 96) translate(971 587)">
                    <g fill="#000" stroke="#000" stroke-width=".6">
                        <path d="M14.157 16.04H2.509v-.89c0-.408.333-.74.741-.74h10.166c.408 0 .74.332.74.74v.89zM3.91 8.754c0-2.438 1.983-4.422 4.422-4.422 2.439 0 4.422 1.984 4.422 4.422v4.953H3.911V8.753zm9.549 4.954V8.753c0-1.37-.533-2.657-1.502-3.625-.968-.968-2.256-1.502-3.625-1.502-1.37 0-2.657.534-3.625 1.502S3.206 7.384 3.206 8.753v4.954c-.776.023-1.4.662-1.4 1.444v1.242c0 .195.157.352.351.352H14.51c.194 0 .352-.157.352-.352v-1.242c0-.782-.625-1.421-1.401-1.444h0z" transform="translate(1.667 1.667)"/>
                        <path d="M8.6 5.833C6.616 5.833 5 7.45 5 9.434c0 .195.158.352.352.352.195 0 .352-.157.352-.352 0-1.597 1.3-2.896 2.897-2.896.194 0 .352-.158.352-.353 0-.194-.158-.352-.352-.352M8.333 2.416c.195 0 .352-.158.352-.352V.359c0-.195-.157-.352-.352-.352-.194 0-.352.157-.352.352v1.705c0 .194.158.352.352.352M4.205 2.845c.07.07.16.103.25.103s.18-.034.248-.103c.138-.137.138-.36 0-.498L3.498 1.142c-.138-.138-.36-.138-.498 0-.138.137-.138.36 0 .498l1.205 1.205M2.16 5.804c.096-.169.037-.384-.132-.48l-1.48-.846c-.17-.097-.384-.038-.481.13-.096.17-.038.385.131.481l1.48.846c.056.031.116.046.175.046.122 0 .241-.063.306-.177M12.212 2.948c.09 0 .18-.034.25-.103l1.205-1.205c.137-.138.137-.36 0-.498s-.36-.138-.498 0l-1.206 1.205c-.137.138-.137.36 0 .498.07.07.16.103.25.103M16.6 4.609c-.097-.17-.312-.228-.48-.131l-1.482.845c-.168.097-.227.312-.13.48.064.115.183.178.305.178.06 0 .12-.015.175-.046l1.48-.846c.17-.096.228-.311.132-.48" transform="translate(1.667 1.667)"/>
                    </g>
                </g>
            </g>
        </g>
    </g>
</svg>
