<svg xmlns="http://www.w3.org/2000/svg" width="28" height="28" viewBox="0 0 28 28">
    <g fill="none" fill-rule="evenodd">
        <g fill="#000">
            <g>
                <path d="M5.075 18.433c-.87 0-1.575.706-1.575 1.575 0 .87.706 1.575 1.575 1.575.87 0 1.575-.705 1.575-1.575s-.706-1.575-1.575-1.575zm3.675 3.15H24.5v-2.1H8.75v2.1zm-3.675-9.45c-.87 0-1.575.706-1.575 1.575 0 .87.706 1.575 1.575 1.575.87 0 1.575-.705 1.575-1.575s-.706-1.575-1.575-1.575zm3.675 3.15H24.5v-2.1H8.75v2.1zm-3.675-9.45c-.87 0-1.575.706-1.575 1.575 0 .87.706 1.575 1.575 1.575.87 0 1.575-.705 1.575-1.575s-.706-1.575-1.575-1.575zm3.675 3.15H24.5v-2.1H8.75v2.1z" transform="translate(-327 -1250) translate(327 1250)"/>
            </g>
        </g>
    </g>
</svg>
