<svg xmlns="http://www.w3.org/2000/svg" width="32" height="32" viewBox="0 0 32 32">
    <g fill="none" fill-rule="evenodd">
        <g fill="#000">
            <g>
                <g>
                    <g>
                        <path d="M14.667 4c5.89 0 10.666 4.776 10.666 10.667 0 2.513-.869 4.823-2.323 6.646l4.99 4.99L26.303 28l-4.99-4.99c-1.824 1.454-4.134 2.323-6.646 2.323C8.776 25.333 4 20.557 4 14.667 4 8.776 8.776 4 14.667 4zm0 2.667c-4.411 0-8 3.589-8 8 0 4.412 3.589 8 8 8 4.41 0 8-3.588 8-8 0-4.411-3.59-8-8-8z" transform="translate(-1577 -528) translate(140 504) translate(1413) translate(24 24)"/>
                    </g>
                </g>
            </g>
        </g>
    </g>
</svg>
