<svg xmlns="http://www.w3.org/2000/svg" width="24" height="24" viewBox="0 0 24 24">
    <g fill="none" fill-rule="evenodd">
        <g fill="#000">
            <g>
                <g>
                    <path d="M11 3c4.418 0 8 3.582 8 8 0 1.885-.652 3.617-1.742 4.985L21 19.727 19.727 21l-3.743-3.742C14.616 18.348 12.884 19 11 19c-4.418 0-8-3.582-8-8s3.582-8 8-8zm0 2c-3.308 0-6 2.692-6 6 0 3.309 2.692 6 6 6s6-2.691 6-6c0-3.308-2.692-6-6-6z" transform="translate(-484 -2049) translate(139 2045) translate(345 4)"/>
                </g>
            </g>
        </g>
    </g>
</svg>
