<svg xmlns="http://www.w3.org/2000/svg" width="16" height="16" viewBox="0 0 16 16">
    <g fill="none" fill-rule="evenodd">
        <g fill="#7F7F7F">
            <g>
                <g>
                    <g>
                        <path d="M8 3C4.818 3 2.1 4.98 1 7.773c1.1 2.793 3.818 4.772 7 4.772s5.9-1.979 7-4.772C13.9 4.979 11.182 3 8 3zm0 7.955c-1.756 0-3.182-1.426-3.182-3.182C4.818 6.016 6.244 4.59 8 4.59s3.182 1.425 3.182 3.182c0 1.756-1.426 3.182-3.182 3.182zm0-5.091c-1.056 0-1.91.852-1.91 1.909 0 1.056.854 1.909 1.91 1.909s1.91-.853 1.91-1.91c0-1.056-.854-1.908-1.91-1.908z" transform="translate(-223 -1892) translate(168 1466) translate(0 424) translate(55 2)"/>
                    </g>
                </g>
            </g>
        </g>
    </g>
</svg>
