<svg xmlns="http://www.w3.org/2000/svg" width="32" height="32" viewBox="0 0 32 32">
    <g fill="none" fill-rule="evenodd">
        <g fill="#3F64AC">
            <g>
                <g>
                    <g>
                        <g>
                            <g>
                                <path d="M28.003.01H16.554C16.368.005 16.18 0 15.992 0c-.188 0-.375.004-.56.01H4.022C1.816.01.027 1.802.027 4.01v11.113c-.017.304-.027.61-.027.917 0 .308.01.613.027.916v11.045C.027 30.21 1.816 32 4.023 32h8.77V20.852H9.596V16.04h3.199v-4.01c0-3.096 2.51-5.614 5.597-5.614h3.998v4.812h-3.198c-.88 0-1.6.722-1.6 1.604v3.208h4.798v4.812h-4.798v10.05l-.026.028V32h10.438C30.211 32 32 30.21 32 28.001V4.01c0-2.209-1.79-4-3.997-4" transform="translate(-1534 -1064) translate(268 378) translate(0 496) translate(1178 175) translate(44 15) translate(44)"/>
                            </g>
                        </g>
                    </g>
                </g>
            </g>
        </g>
    </g>
</svg>
