<svg xmlns="http://www.w3.org/2000/svg" width="24" height="24" viewBox="0 0 24 24">
    <g fill="none" fill-rule="evenodd">
        <g fill="#3C89F9">
            <g>
                <g>
                    <g>
                        <path d="M7.105 8.278l2.687 2.687-3.156 3.156 3.818 3.819 3.157-3.157 2.426 2.426-1.86 1.862c-2.467 2.467-6.466 2.467-8.932 0-2.467-2.466-2.467-6.465 0-8.932l1.86-1.86zm12.282-3.35c2.466 2.467 2.466 6.466 0 8.933l-2.078 2.076-2.426-2.426 3.774-3.774-3.819-3.818-3.773 3.773-2.687-2.687 2.077-2.076c2.466-2.467 6.465-2.467 8.932 0zm-4.53 3.536l1.273 1.273-5.657 5.657L9.2 14.121l5.657-5.657z" transform="translate(-1146 -471) translate(268 453) translate(878 18)"/>
                    </g>
                </g>
            </g>
        </g>
    </g>
</svg>
