<svg xmlns="http://www.w3.org/2000/svg" width="32" height="32" viewBox="0 0 32 32">
    <g fill="none" fill-rule="evenodd">
        <g fill="#000">
            <g>
                <g>
                    <g>
                        <path d="M20.399 24.399l.001.801c0 2.32-1.88 4.2-4.2 4.2-2.32 0-4.2-1.88-4.2-4.2l-.001-.801L5 24.4V22l1.999-.001L7 12.2c0-4.992 3.976-9.055 8.933-9.196L16.2 3c5.081 0 9.2 4.119 9.2 9.2l-.001 9.799L27 22v2.4l-6.601-.001zM18 24.4h-3.6v.8c0 .944.727 1.719 1.652 1.794L16.2 27c.994 0 1.8-.806 1.8-1.8v-.8zm-1.8-19c-3.756 0-6.8 3.044-6.8 6.8V22H23v-9.8c0-3.676-2.916-6.67-6.561-6.796z" transform="translate(-1657 -528) translate(140 504) translate(1493) translate(24 24)"/>
                    </g>
                </g>
            </g>
        </g>
    </g>
</svg>
