<svg xmlns="http://www.w3.org/2000/svg" width="12" height="12" viewBox="0 0 12 12">
    <g fill="none" fill-rule="evenodd">
        <g fill="#7F7F7F">
            <g>
                <g>
                    <g>
                        <g>
                            <path d="M9.932 1.438c.176-.13.426-.116.586.044.176.176.176.46 0 .636L6.637 6l3.881 3.882c.176.176.176.46 0 .636-.16.16-.41.174-.586.044l-.05-.044L6 6.637l-3.882 3.881-.05.044c-.176.13-.426.116-.586-.044-.176-.176-.176-.46 0-.636L5.363 6 1.482 2.118c-.176-.176-.176-.46 0-.636.16-.16.41-.174.586-.044l.05.044L6 5.363l3.882-3.881z" transform="translate(-1599 -976) translate(268 619) translate(0 335) translate(66 16) translate(1265 6)"/>
                        </g>
                    </g>
                </g>
            </g>
        </g>
    </g>
</svg>
