<svg xmlns="http://www.w3.org/2000/svg" width="22" height="5" viewBox="0 0 22 5">
    <g fill="none" fill-rule="evenodd">
        <g fill="#000">
            <g>
                <g>
                    <g>
                        <path d="M11.121 8.971c-1.17 0-2.121.95-2.121 2.122 0 1.17.95 2.121 2.121 2.121s2.122-.95 2.122-2.121-.95-2.122-2.122-2.122zm0-8.485C9.951.486 9 1.436 9 2.607s.95 2.122 2.121 2.122 2.122-.95 2.122-2.122c0-1.17-.95-2.121-2.122-2.121zm0-8.486C9.951-8 9-7.05 9-5.879s.95 2.122 2.121 2.122 2.122-.95 2.122-2.122c0-1.17-.95-2.121-2.122-2.121z" transform="translate(-1610 -4017) translate(268 3555) translate(0 252) translate(20 201) rotate(-90 676.621 -653.893)"/>
                    </g>
                </g>
            </g>
        </g>
    </g>
</svg>
