<svg xmlns="http://www.w3.org/2000/svg" width="38" height="38" viewBox="0 0 38 38">
    <g fill="none" fill-rule="evenodd">
        <g>
            <g>
                <g>
                    <path fill="#EFEFEF" d="M19 0c10.494 0 19 8.506 19 19s-8.506 19-19 19S0 29.494 0 19 8.506 0 19 0m0 10.23c-4.842 0-8.77 3.926-8.77 8.77 0 4.842 3.928 8.77 8.77 8.77 4.844 0 8.77-3.928 8.77-8.77 0-4.844-3.926-8.77-8.77-8.77" transform="translate(-941 -3173) translate(0 135) translate(941 3038)"/>
                    <path fill="#C8C8C8" d="M20.968 27.539c-2.31.5-4.6.019-6.453-1.16L9 34.996c4.034 2.606 9.043 3.672 14.092 2.578 10.181-2.204 16.666-12.336 14.486-22.631C36.497 9.836 33.482 5.654 29.48 3l-5.517 8.616c1.823 1.227 3.195 3.142 3.69 5.477 1.006 4.75-1.987 9.428-6.685 10.446z" transform="translate(-941 -3173) translate(0 135) translate(941 3038)"/>
                </g>
            </g>
        </g>
    </g>
</svg>
