<svg xmlns="http://www.w3.org/2000/svg" width="36" height="36" viewBox="0 0 36 36">
    <g fill="none" fill-rule="evenodd">
        <g fill="#FFF">
            <g>
                <g>
                    <g>
                        <g>
                            <path d="M9.45 11.818l4.275 4.275-5.022 5.022 6.076 6.076 5.022-5.022 3.86 3.861-5.6 5.6c-2.466 2.467-6.465 2.467-8.932 0l-5.28-5.279c-2.466-2.466-2.466-6.465 0-8.932l5.601-5.601zM26.351 3.85l5.28 5.28c2.466 2.466 2.466 6.465 0 8.931l-5.945 5.944-3.86-3.861 6.003-6.004-6.075-6.075-6.004 6.003-4.275-4.275 5.944-5.943c2.467-2.467 6.466-2.467 8.932 0zm-4.137 8.744l2.026 2.025-9.001 9-2.025-2.025 9-9z" transform="translate(-1345 -609) translate(0 135) translate(268 398) translate(1065 64) translate(12 12)"/>
                        </g>
                    </g>
                </g>
            </g>
        </g>
    </g>
</svg>
