<svg xmlns="http://www.w3.org/2000/svg" width="36" height="36" viewBox="0 0 36 36">
    <g fill="none" fill-rule="evenodd">
        <g fill="#FFF">
            <g>
                <g>
                    <g>
                        <g>
                            <path d="M35 1v34H1V1h34zm-4.817 3L19.449 15.128l-4.155-4.205-2.49 2.46 6.675 6.755 8.685-9.003c.316.635.499 1.339.484 2.066-.03 1.463-.402 2.465-1.044 3.282l-.184.224-.22.233-9.478 9.314-9.48-9.314-.22-.233-.183-.224c-.642-.817-1.014-1.82-1.044-3.282-.051-2.402 1.962-4.618 4.322-4.663 1.192-.023 2.11.205 2.803.583.248.136.414.258.504.335l.07.07 2.17-1.771-.106-.125c-.273-.3-.703-.65-1.304-.98-1.116-.61-2.513-.956-4.191-.923-3.935.075-7.143 3.606-7.061 7.533.043 2.089.634 3.68 1.648 4.969l.088.11.156.19.158.176.315.324 11.338 11.137.017-.014.016.014 11.338-11.137.316-.324.157-.175.156-.19.088-.111c1.014-1.288 1.605-2.88 1.648-4.97.032-1.528-.446-2.988-1.261-4.214l2.522-2.615L30.182 4z" transform="translate(-1605 -633) translate(0 135) translate(268 486) translate(1065) translate(272 12)"/>
                        </g>
                    </g>
                </g>
            </g>
        </g>
    </g>
</svg>
