<svg xmlns="http://www.w3.org/2000/svg" width="24" height="24" viewBox="0 0 24 24">
    <defs>
        <filter id="hlpsfee6ia" width="204.5%" height="173.7%" x="-52.3%" y="-36.9%" filterUnits="objectBoundingBox">
            <feOffset dx="20" dy="20" in="SourceAlpha" result="shadowOffsetOuter1"/>
            <feGaussianBlur in="shadowOffsetOuter1" result="shadowBlurOuter1" stdDeviation="20"/>
            <feColorMatrix in="shadowBlurOuter1" result="shadowMatrixOuter1" values="0 0 0 0 0 0 0 0 0 0 0 0 0 0 0 0 0 0 0.1 0"/>
            <feMerge>
                <feMergeNode in="shadowMatrixOuter1"/>
                <feMergeNode in="SourceGraphic"/>
            </feMerge>
        </filter>
    </defs>
    <g fill="none" fill-rule="evenodd">
        <g fill="#3C89F9">
            <g filter="url(#hlpsfee6ia)" transform="translate(-1846 -905) translate(1814 705)">
                <g>
                    <g>
                        <path d="M18.877 13.16c.037-.297.064-.593.064-.908 0-.314-.027-.61-.064-.906l1.952-1.527c.176-.139.222-.389.11-.592l-1.85-3.201c-.083-.148-.24-.232-.407-.232-.055 0-.11.01-.157.028l-2.304.925c-.481-.37-1-.675-1.563-.906l-.352-2.452c-.028-.222-.222-.389-.453-.389h-3.701c-.232 0-.426.167-.454.389L9.347 5.84c-.565.23-1.083.545-1.564.906l-2.304-.925c-.055-.018-.111-.028-.166-.028-.158 0-.315.084-.398.232l-1.85 3.2c-.121.204-.066.454.11.593l1.952 1.527c-.037.296-.064.601-.064.906 0 .306.027.611.064.907l-1.952 1.527c-.176.139-.222.388-.11.592l1.85 3.201c.083.148.24.232.407.232.055 0 .11-.01.157-.028l2.304-.925c.481.37 1 .675 1.564.906l.351 2.452c.028.222.222.389.454.389h3.7c.232 0 .426-.167.454-.389l.352-2.452c.564-.23 1.082-.545 1.563-.906l2.304.925c.056.018.111.028.167.028.157 0 .314-.084.397-.232l1.85-3.201c.112-.204.066-.453-.11-.592l-1.952-1.527zM12.002 8.55c-2.045 0-3.7 1.657-3.7 3.701 0 2.045 1.655 3.701 3.7 3.701s3.701-1.656 3.701-3.7c0-2.045-1.656-3.702-3.701-3.702zm0 5.552c-1.018 0-1.85-.833-1.85-1.85 0-1.018.832-1.851 1.85-1.851 1.018 0 1.85.833 1.85 1.85 0 1.018-.832 1.851-1.85 1.851z" transform="translate(0 184) translate(32 16)"/>
                    </g>
                </g>
            </g>
        </g>
    </g>
</svg>
