<svg xmlns="http://www.w3.org/2000/svg" width="16" height="16" viewBox="0 0 16 16">
    <g fill="none" fill-rule="evenodd">
        <g fill="#000">
            <g>
                <g>
                    <g>
                        <path d="M2.9 10.533c-.497 0-.9.404-.9.9 0 .497.403.9.9.9s.9-.403.9-.9c0-.496-.403-.9-.9-.9zm2.1 1.8h9v-1.2H5v1.2zm-2.1-5.4c-.497 0-.9.404-.9.9 0 .497.403.9.9.9s.9-.403.9-.9c0-.496-.403-.9-.9-.9zm2.1 1.8h9v-1.2H5v1.2zm-2.1-5.4c-.497 0-.9.404-.9.9 0 .497.403.9.9.9s.9-.403.9-.9c0-.496-.403-.9-.9-.9zm2.1 1.8h9v-1.2H5v1.2z" transform="translate(-343 -5956) translate(140 5626) translate(78 328) translate(125 2)"/>
                    </g>
                </g>
            </g>
        </g>
    </g>
</svg>
