<svg xmlns="http://www.w3.org/2000/svg" width="16" height="16" viewBox="0 0 16 16">
    <g fill="none" fill-rule="evenodd">
        <g fill="#FFC864">
            <g>
                <g>
                    <g>
                        <g>
                            <path d="M8 12.065c.098 0 .195.03.278.095l3.71 2.84.531-.406-1.417-4.596c-.063-.205.006-.43.172-.557L15 6.587l-.2-.646h-4.604c-.205 0-.387-.139-.45-.344L8.33 1h-.657L6.254 5.597c-.063.205-.244.344-.449.344H1.2L1 6.587 4.727 9.44c.165.127.234.352.172.557L3.48 14.594l.531.406 3.71-2.84c.083-.064.181-.095.278-.095" transform="translate(-585 -487) translate(0 76) translate(585 228) translate(0 182) translate(0 1)"/>
                        </g>
                    </g>
                </g>
            </g>
        </g>
    </g>
</svg>
