<svg xmlns="http://www.w3.org/2000/svg" width="20" height="20" viewBox="0 0 20 20">
    <g fill="none" fill-rule="evenodd">
        <g fill="#FFF" fill-rule="nonzero">
            <g>
                <g>
                    <g>
                        <g>
                            <g>
                                <path d="M1.993 2.93h4.972c.33 0 .598.267.598.597v.18c0 .33-.268.597-.598.597H1.993c-.33 0-.598-.267-.598-.597v-.18c0-.33.268-.597.598-.597z" transform="translate(-799 -841) translate(268 452) translate(417 243) translate(114 146) scale(-1 1) rotate(-45 -2.348 27.202) matrix(0 1 1 0 .862 -.862)"/>
                                <path d="M3.694 1.745l4.295.007c.33 0 .596.267.597.597v.177c0 .33-.267.598-.597.599h-.001l-4.295-.007c-.33 0-.596-.267-.597-.597v-.177c0-.33.267-.598.597-.599h.001z" transform="translate(-799 -841) translate(268 452) translate(417 243) translate(114 146) scale(-1 1) rotate(-45 -2.348 27.202) scale(1 -1) rotate(-45 -.038 0)"/>
                                <path d="M.428 1.947l4.295-.005c.33 0 .598.267.598.596v.18c0 .329-.267.596-.596.596L.43 3.32c-.33 0-.598-.266-.599-.596v-.179c.001-.33.268-.597.597-.597z" transform="translate(-799 -841) translate(268 452) translate(417 243) translate(114 146) scale(-1 1) rotate(-45 -2.348 27.202) scale(-1 1) rotate(45 0 -3.59)"/>
                            </g>
                            <g>
                                <path d="M1.993 2.93h4.972c.33 0 .598.267.598.597v.18c0 .33-.268.597-.598.597H1.993c-.33 0-.598-.267-.598-.597v-.18c0-.33.268-.597.598-.597z" transform="translate(-799 -841) translate(268 452) translate(417 243) translate(114 146) scale(-1 1) rotate(45 -3.358 -7.308) matrix(0 1 1 0 .862 -.862)"/>
                                <path d="M3.694 1.745l4.295.007c.33 0 .596.267.597.597v.177c0 .33-.267.598-.597.599h-.001l-4.295-.007c-.33 0-.596-.267-.597-.597v-.177c0-.33.267-.598.597-.599h.001z" transform="translate(-799 -841) translate(268 452) translate(417 243) translate(114 146) scale(-1 1) rotate(45 -3.358 -7.308) scale(1 -1) rotate(-45 -.038 0)"/>
                                <path d="M.428 1.947l4.295-.005c.33 0 .598.267.598.596v.18c0 .329-.267.596-.596.596L.43 3.32c-.33 0-.598-.266-.599-.596v-.179c.001-.33.268-.597.597-.597z" transform="translate(-799 -841) translate(268 452) translate(417 243) translate(114 146) scale(-1 1) rotate(45 -3.358 -7.308) scale(-1 1) rotate(45 0 -3.59)"/>
                            </g>
                            <g>
                                <g>
                                    <path d="M1.877 3.045H6.85c.33 0 .597.267.597.597v.18c0 .33-.267.597-.597.597H1.877c-.33 0-.597-.267-.597-.597v-.18c0-.33.267-.597.597-.597z" transform="translate(-799 -841) translate(268 452) translate(417 243) translate(114 146) rotate(-180 10 10.15) scale(-1 1) rotate(-45 -2.348 27.202) matrix(0 1 1 0 .632 -.632)"/>
                                    <path d="M3.694 1.745l4.295.007c.33 0 .596.267.597.597v.177c0 .33-.267.598-.597.599h-.001l-4.295-.007c-.33 0-.596-.267-.597-.597v-.177c0-.33.267-.598.597-.599h.001z" transform="translate(-799 -841) translate(268 452) translate(417 243) translate(114 146) rotate(-180 10 10.15) scale(-1 1) rotate(-45 -2.348 27.202) scale(1 -1) rotate(-45 -.038 0)"/>
                                    <path d="M.428 1.947l4.295-.005c.33 0 .598.267.598.596v.18c0 .329-.267.596-.596.596L.43 3.32c-.33 0-.598-.266-.599-.596v-.179c.001-.33.268-.597.597-.597z" transform="translate(-799 -841) translate(268 452) translate(417 243) translate(114 146) rotate(-180 10 10.15) scale(-1 1) rotate(-45 -2.348 27.202) scale(-1 1) rotate(45 0 -3.59)"/>
                                </g>
                                <g>
                                    <path d="M1.93 2.855h4.973c.33 0 .597.267.597.597v.18c0 .33-.267.597-.597.597H1.93c-.33 0-.597-.267-.597-.597v-.18c0-.33.267-.597.597-.597z" transform="translate(-799 -841) translate(268 452) translate(417 243) translate(114 146) rotate(-180 10 10.15) scale(-1 1) rotate(45 -3.358 -7.308) matrix(0 1 1 0 .874 -.874)"/>
                                    <path d="M3.694 1.745l4.295.007c.33 0 .596.267.597.597v.177c0 .33-.267.598-.597.599h-.001l-4.295-.007c-.33 0-.596-.267-.597-.597v-.177c0-.33.267-.598.597-.599h.001z" transform="translate(-799 -841) translate(268 452) translate(417 243) translate(114 146) rotate(-180 10 10.15) scale(-1 1) rotate(45 -3.358 -7.308) scale(1 -1) rotate(-45 -.038 0)"/>
                                    <path d="M.428 1.947l4.295-.005c.33 0 .598.267.598.596v.18c0 .329-.267.596-.596.596L.43 3.32c-.33 0-.598-.266-.599-.596v-.179c.001-.33.268-.597.597-.597z" transform="translate(-799 -841) translate(268 452) translate(417 243) translate(114 146) rotate(-180 10 10.15) scale(-1 1) rotate(45 -3.358 -7.308) scale(-1 1) rotate(45 0 -3.59)"/>
                                </g>
                            </g>
                        </g>
                    </g>
                </g>
            </g>
        </g>
    </g>
</svg>
