<svg xmlns="http://www.w3.org/2000/svg" width="143" height="14" viewBox="0 0 143 14">
    <g fill="none" fill-rule="evenodd">
        <g fill="#FFF">
            <g>
                <path d="M158.323 71.169h1.527V67.12h1.894v7.882c0 1.353-.377 2.03-1.13 2.03h-.26c-.336 0-.504-.162-.504-.487v-3.833h-1.527v-1.544zm-3.696 0c.224 0 .435-.03.633-.09.199-.062.375-.148.527-.26.153-.102.275-.227.367-.374.092-.15.137-.314.137-.498 0-.173-.045-.334-.137-.481-.092-.147-.214-.278-.367-.39-.152-.101-.328-.182-.527-.244-.198-.061-.41-.09-.633-.09-.49 0-.889.112-1.2.334-.31.224-.465.516-.465.87 0 .357.155.651.466.88.31.228.71.343 1.199.343zm-1.925 5.62h1.894v1.773c0 .325.173.487.52.487h6.551c.245 0 .367.163.367.49 0 .703-.23 1.053-.687 1.053h-6.904c-.58 0-1.015-.12-1.305-.367-.29-.243-.436-.636-.436-1.176v-2.26zm1.925-9.545c.54.011 1.023.086 1.45.23.428.143.795.33 1.1.564.295.244.522.533.68.864.158.33.237.685.237 1.061 0 .377-.077.734-.23 1.07-.152.334-.376.626-.672.869-.295.254-.659.457-1.092.604-.432.147-.924.222-1.473.222-.54 0-1.024-.075-1.451-.222-.428-.147-.79-.35-1.085-.604-.305-.243-.54-.532-.702-.863-.163-.33-.245-.68-.245-1.046 0-.377.082-.733.245-1.07.163-.334.397-.626.702-.869.296-.245.657-.437 1.085-.58.427-.144.911-.219 1.45-.23zm-4.032 6.263h7.987c.245 0 .367.168.367.502 0 .674-.189 1.008-.565 1.008h-2.719v.703c0 .5-.229.748-.687.748H154.084c-.096 0-.19-.005-.282-.015-.01-.092-.015-.184-.015-.281v-1.154h-3.192v-1.511zm-2.2-1.239c0 1.273-.371 1.91-1.115 1.91h-.274c-.336 0-.504-.163-.504-.49v-6.567h1.893v2.551h1.741c.245 0 .367.168.367.505 0 .693-.23 1.038-.687 1.038h-1.42v1.053zm-5.895.093c.275 0 .412-.275.412-.826v-.763h-3.054v1.1c0 .326.168.49.504.49h2.138zm-2.78 4.704h6.507c.183 0 .275-.152.275-.46v-.38h-6.782V74.79h7.881c.53 0 .794.26.794.777v.506c0 1.568-.407 2.35-1.221 2.35h-5.56v.52c0 .235.117.352.352.352h6.368c.245 0 .367.158.367.474 0 .641-.23.962-.687.962h-6.705c-1.06 0-1.589-.516-1.589-1.543v-2.123zm.138-9.409v1.604h3.054v-1.604h1.894v3.575c0 1.762-.453 2.641-1.359 2.641h-3.88c-1.068 0-1.603-.513-1.603-1.543v-4.673h1.894zm-3.696 11.24c0 1.273-.372 1.91-1.115 1.91h-.228c-.347 0-.52-.163-.52-.489v-7.375h-1.068v5.773c0 1.272-.378 1.909-1.132 1.909h-.229c-.334 0-.504-.163-.504-.49V67.12h1.865v4.2h1.069v-4.2h1.862v11.776zm-5.925-9.788c0 .925-.123 1.788-.366 2.588-.245.8-.577 1.524-.993 2.176-.429.653-.924 1.23-1.49 1.733-.565.506-1.169.926-1.81 1.262-.11.06-.209.091-.29.091-.072 0-.158-.031-.26-.091-.102-.061-.197-.139-.289-.23-.091-.091-.17-.195-.229-.312-.061-.118-.093-.233-.093-.345 0-.142.082-.28.246-.413.478-.285.937-.635 1.373-1.052.44-.418.826-.891 1.16-1.42.338-.53.605-1.108.803-1.735.2-.627.299-1.295.299-2.009h-3.452V67.81h4.597c.53 0 .794.26.794.78v.52zm-11.133 1.77h1.785v-.931h-1.785v-1.482h1.785v-1.344h1.91v6.08c0 1.273-.377 1.91-1.13 1.91h-.26c-.347 0-.52-.164-.52-.49v-2.26h-1.785V70.88zm1.802 6.37h-6.919v-1.543h8.002c.54 0 .81.26.81.78v2.29c0 1.274-.377 1.91-1.13 1.91h-.245c-.346 0-.518-.163-.518-.489v-2.949zm-8.86-6.903h4.292c.193 0 .29-.154.29-.46v-.748h-4.582v-1.481h5.666c.53 0 .795.255.795.765v1.037c0 1.57-.403 2.353-1.206 2.353h-3.36v.885c0 .235.116.353.35.353h5.103c.243 0 .365.161.365.487 0 .673-.228 1.008-.687 1.008h-5.437c-1.06 0-1.589-.513-1.589-1.543v-2.656zm-2.321 4.566c0 1.263-.372 1.895-1.115 1.895h-.258c-.348 0-.52-.163-.52-.49V67.12h1.893v7.79zm-8.69.809h1.88v2.842c0 .325.167.487.503.487h6.232c.244 0 .365.163.365.49 0 .703-.228 1.053-.686 1.053h-6.553c-.58 0-1.015-.118-1.305-.359-.29-.238-.435-.634-.435-1.184V75.72zm1.513-2.764c.244 0 .47-.054.678-.16.21-.108.396-.258.558-.45.154-.185.276-.4.368-.65.091-.249.136-.51.136-.786s-.045-.535-.136-.779c-.092-.245-.214-.459-.368-.641-.162-.185-.348-.328-.558-.435-.208-.107-.429-.16-.664-.16-.253 0-.488.053-.701.16-.214.107-.397.25-.55.435-.163.182-.288.396-.374.641-.087.244-.13.503-.13.78 0 .274.043.536.13.785.086.25.206.465.359.65.151.182.336.33.55.442.212.112.447.168.702.168zm0-5.575c.56.01 1.064.107 1.512.29.448.184.83.434 1.145.75.306.326.539.705.702 1.136.163.433.245.899.245 1.398 0 .5-.082.966-.245 1.399-.163.432-.396.805-.702 1.12-.315.318-.697.57-1.145.757-.448.19-.952.289-1.512.299-.55-.01-1.049-.11-1.498-.3-.448-.186-.824-.438-1.129-.755-.316-.316-.555-.687-.718-1.114-.164-.427-.245-.887-.245-1.376 0-.497.081-.966.245-1.405.163-.437.397-.82.703-1.144.305-.317.682-.569 1.13-.756.448-.19.952-.289 1.512-.299zm-11.088 2.23c-.468.47-1.059.88-1.772 1.23-.712.352-1.603.66-2.672.925-.051 0-.084.002-.1.007-.015.005-.033.007-.053.007-.163 0-.334-.09-.512-.266-.178-.179-.267-.43-.267-.756 0-.214.117-.367.351-.46 1.303-.265 2.304-.658 3.001-1.182.698-.525 1.046-1.123 1.046-1.795v-.2h1.94v.2c0 .682.349 1.282 1.046 1.802.698.52 1.698.916 3.001 1.19.235.092.352.246.352.459 0 .325-.092.579-.275.756-.184.18-.357.267-.52.267-.02 0-.04-.003-.06-.008-.021-.005-.046-.007-.077-.007-1.039-.265-1.94-.576-2.703-.932-.764-.355-1.34-.767-1.726-1.237zm-4.658 7.545h7.132c.183 0 .275-.142.275-.428v-.304h-7.407v-1.452h3.711v-.993h-5.605v-1.482H97.63c.244 0 .367.165.367.49 0 .661-.23.992-.688.992h-4.917v.993h2.917c.53 0 .794.26.794.78v.366c0 .539-.038.966-.115 1.282-.076.317-.175.556-.298.718-.132.174-.282.284-.45.33-.168.045-.344.067-.527.067h-6.017v.397c0 .235.117.351.35.351h6.996c.234 0 .351.15.351.443 0 .672-.23 1.008-.687 1.008h-7.163c-.58 0-1.016-.12-1.306-.357-.29-.241-.435-.634-.435-1.185v-2.016zm-3.024 1.756c0 1.273-.372 1.91-1.115 1.91h-.29c-.347 0-.52-.164-.52-.49v-13.21h1.925v11.79zm-4.048-9.804c0 1.78-.519 3.328-1.557 4.642-1.039 1.315-2.439 2.331-4.2 3.056-.357.152-.652.005-.886-.445-.224-.437-.168-.758.168-.962.662-.264 1.257-.6 1.787-1.008.53-.406 1.018-.874 1.466-1.404.865-1.05 1.298-2.261 1.298-3.636h-4.475V67.81h5.605c.53 0 .794.256.794.763v.536zm-9.224 4.093c0 1.273-.372 1.91-1.115 1.91h-.26c-.335 0-.504-.164-.504-.49v-7.5h1.879v2.856h1.742c.244 0 .367.168.367.504 0 .694-.23 1.039-.688 1.039h-1.421v1.681zm-6.979.046c.406 0 .746-.148 1.015-.444.27-.294.404-.652.404-1.07 0-.191-.035-.38-.106-.564-.07-.184-.168-.341-.29-.472-.133-.134-.284-.241-.459-.322-.173-.08-.361-.123-.564-.123-.205 0-.393.042-.565.123-.174.081-.322.188-.443.322-.123.13-.22.288-.29.472-.072.184-.107.373-.107.565 0 .417.133.775.397 1.069.265.296.6.444 1.008.444zm5.1 4h-6.766v-1.542h7.85c.53 0 .795.26.795.78v2.29c0 1.274-.372 1.91-1.115 1.91h-.26c-.335 0-.504-.163-.504-.489v-2.949zm-8.704-9.025h2.673v-1.221h1.892v1.221h2.49c.235 0 .351.172.351.52 0 .66-.223.991-.67.991h-.98c.357.236.628.546.811.932.184.387.275.81.275 1.269 0 .395-.075.767-.221 1.115-.15.344-.36.645-.634.9-.276.255-.611.458-1.008.61-.397.153-.85.236-1.36.245-.48 0-.916-.073-1.313-.22-.397-.15-.74-.35-1.024-.605-.285-.243-.507-.537-.665-.877-.158-.341-.236-.711-.236-1.109 0-.458.092-.893.276-1.305.183-.411.458-.73.824-.955h-1.481v-1.51zm-2.384 10.675c0 1.272-.371 1.909-1.115 1.909h-.26c-.346 0-.519-.163-.519-.489V67.121h1.894v4.659h1.726c.244 0 .368.173.368.52 0 .733-.23 1.099-.689 1.099H57.54v5.498zm-5.742-3.787c.173-1.03.303-1.984.39-2.863.086-.882.129-1.693.129-2.436v-.444h-4.948v-1.543h6.034c.528 0 .794.26.794.779v1.283c0 .641-.045 1.355-.131 2.14-.087.782-.217 1.654-.39 2.61-.102.317-.356.474-.763.474h-1.115zm-1.146-2.674v4.095h4.124c.244 0 .366.163.366.488 0 .702-.224 1.054-.672 1.054h-7.926v-1.542h2.216v-4.095h1.892zm-6.092 6.476c0 1.273-.378 1.91-1.13 1.91h-.261c-.335 0-.504-.164-.504-.49v-13.21h1.895v4.2h1.74c.235 0 .352.174.352.519 0 .733-.23 1.1-.687 1.1h-1.405v5.971zm-3.85-9.804c0 1.78-.518 3.328-1.557 4.642-1.049 1.323-2.455 2.342-4.215 3.056-.336.152-.626.005-.87-.445-.226-.437-.169-.758.166-.962.662-.264 1.259-.6 1.788-1.008.528-.406 1.018-.874 1.466-1.404.865-1.05 1.299-2.261 1.299-3.636h-4.49V67.81h5.62c.528 0 .794.256.794.763v.536zm-11.881 2.81c.417-1.233.626-2.265.626-3.101h-7.56v-1.543h8.66c.529 0 .794.261.794.78v.763c0 .388-.061.804-.184 1.253-.122.447-.29.915-.504 1.404-.142.297-.386.444-.733.444h-1.1zm.397 5.33h-7.3v-1.543h3.68v-1.71H20v-1.542h12.722c.245 0 .367.173.367.518 0 .682-.23 1.024-.687 1.024h-4.918v1.71h2.825c.53 0 .794.256.794.763v2.154c0 .683-.089 1.196-.267 1.542-.178.347-.46.52-.848.52h-.26c-.335 0-.503-.162-.503-.488v-2.949z" transform="translate(-160 -1603) translate(140 1536)"/>
            </g>
        </g>
    </g>
</svg>
