<svg xmlns="http://www.w3.org/2000/svg" width="313" height="22" viewBox="0 0 313 22">
    <g fill="none" fill-rule="evenodd">
        <g fill="#FFF">
            <g>
                <path d="M145.946 46.5c6.658 0 9.244-2.034 9.244-6.71 0-4.898-2.698-6.576-9.244-6.576h-3.962V46.5h3.962zm-7.868-16.642h9.628c6.328 0 11.39 2.67 11.39 9.876 0 6.822-4.622 10.124-11.224 10.124h-9.794v-20zm-13.026 8.886c3.192 0 4.814-.468 4.814-2.834 0-2.338-1.622-2.806-4.814-2.806h-7.538v5.64h7.538zm-11.444-8.886h12.022c4.732 0 8.144 1.072 8.144 5.968 0 3.688-2.642 5.724-5.586 5.888l6.134 8.144h-4.812l-5.806-7.868h-6.19v7.868h-3.906v-20zm-8.892 20h3.908v-20h-3.908v20zM80 29.858h3.906v9.326l11.086-9.326h5.558l-9.546 7.922 10.508 12.078h-5.116l-8.226-9.766-4.264 3.548v6.218H80v-20zm307.184 5.692h2.4v-6.36h2.976v12.386c0 2.126-.592 3.19-1.778 3.19h-.406c-.528 0-.792-.256-.792-.766v-6.024h-2.4V35.55zm-5.808 0c.352 0 .684-.048.994-.142.314-.096.59-.234.828-.408.242-.162.434-.356.578-.588.144-.234.214-.494.214-.782 0-.272-.07-.524-.214-.756-.144-.23-.336-.436-.578-.612-.238-.16-.514-.286-.828-.384-.31-.096-.642-.142-.994-.142-.768 0-1.396.176-1.886.526-.488.352-.73.81-.73 1.368 0 .56.242 1.022.73 1.38.49.36 1.118.54 1.886.54zm-3.024 8.832h2.974v2.784c0 .512.274.768.818.768h10.296c.382 0 .576.256.576.768 0 1.106-.362 1.656-1.08 1.656h-10.848c-.912 0-1.598-.192-2.054-.576-.456-.382-.682-1-.682-1.848v-3.552zm3.024-15c.848.018 1.608.136 2.278.362.672.224 1.25.518 1.73.886.464.384.818.838 1.066 1.358.248.518.372 1.076.372 1.668 0 .592-.12 1.152-.358 1.678-.24.528-.594.986-1.058 1.368-.462.4-1.036.716-1.714.95-.68.23-1.454.348-2.316.348-.848 0-1.608-.118-2.28-.348-.672-.234-1.24-.55-1.704-.95-.482-.382-.85-.836-1.106-1.356-.256-.518-.382-1.068-.382-1.644 0-.592.126-1.152.382-1.68.256-.526.624-.984 1.106-1.366.464-.386 1.032-.688 1.704-.912.672-.226 1.432-.344 2.28-.362zm-6.338 9.842h12.554c.384 0 .576.264.576.79 0 1.058-.298 1.584-.888 1.584h-4.272v1.104c0 .786-.36 1.176-1.08 1.176h-1.404c-.154 0-.3-.008-.446-.024-.014-.144-.022-.29-.022-.442v-1.814h-5.018v-2.374zm-3.454-1.946c0 2-.584 3-1.752 3h-.432c-.528 0-.792-.256-.792-.768V29.19h2.976v4.008h2.736c.384 0 .576.264.576.794 0 1.088-.36 1.63-1.08 1.63h-2.232v1.656zm-9.264.144c.432 0 .648-.43.648-1.296v-1.2h-4.8v1.73c0 .51.264.766.792.766h3.36zm-4.368 7.394h10.224c.288 0 .432-.24.432-.722v-.598h-10.656V41.24h12.384c.832 0 1.248.408 1.248 1.222v.792c0 2.466-.64 3.696-1.92 3.696h-8.736v.816c0 .37.184.554.552.554h10.008c.384 0 .576.248.576.744 0 1.008-.36 1.512-1.08 1.512h-10.536c-1.664 0-2.496-.81-2.496-2.424v-3.336zm.216-14.786v2.52h4.8v-2.52h2.976v5.618c0 2.768-.712 4.15-2.136 4.15h-6.096c-1.68 0-2.52-.806-2.52-2.424V30.03h2.976zm-5.808 17.664c0 2-.584 3-1.752 3h-.36c-.544 0-.816-.256-.816-.768V38.334h-1.68v9.074c0 2-.592 3-1.776 3h-.36c-.528 0-.792-.256-.792-.77V29.19h2.928v6.6h1.68v-6.6h2.928v18.504zm-9.312-15.382c0 1.454-.192 2.81-.576 4.066-.384 1.258-.904 2.396-1.56 3.42-.672 1.026-1.452 1.934-2.34 2.724-.888.794-1.836 1.454-2.844 1.98-.176.096-.328.146-.456.146-.112 0-.248-.05-.408-.146-.16-.094-.312-.216-.456-.358-.144-.144-.264-.31-.36-.492-.096-.184-.144-.366-.144-.542 0-.222.128-.44.384-.648.752-.448 1.472-.998 2.16-1.654.688-.656 1.296-1.4 1.824-2.232.528-.832.948-1.742 1.26-2.726.312-.984.468-2.034.468-3.156h-5.424V30.27h7.224c.832 0 1.248.408 1.248 1.226v.816zm-17.496 2.782h2.808V33.63h-2.808v-2.328h2.808V29.19h3v9.554c0 2-.592 3-1.776 3h-.408c-.544 0-.816-.256-.816-.768v-3.554h-2.808v-2.328zm2.832 10.008h-10.872v-2.424h12.576c.848 0 1.272.408 1.272 1.226v3.598c0 2-.592 3-1.776 3h-.384c-.544 0-.816-.254-.816-.766v-4.634zm-13.92-10.848h6.744c.304 0 .456-.24.456-.72v-1.176h-7.2V30.03h8.904c.832 0 1.248.4 1.248 1.202v1.63c0 2.466-.632 3.698-1.896 3.698h-5.28v1.39c0 .37.184.552.552.552h8.016c.384 0 .576.256.576.768 0 1.058-.36 1.584-1.08 1.584h-8.544c-1.664 0-2.496-.806-2.496-2.424v-4.176zm-3.648 7.176c0 1.986-.584 2.978-1.752 2.978h-.408c-.544 0-.816-.256-.816-.77V29.19h2.976v12.24zm-13.656 1.272h2.954v4.464c0 .512.262.768.792.768h9.792c.382 0 .574.256.574.768 0 1.106-.36 1.656-1.078 1.656h-10.298c-.91 0-1.596-.188-2.052-.564-.456-.376-.684-.996-.684-1.86v-5.232zm2.376-4.344c.384 0 .74-.084 1.068-.252.328-.168.62-.404.876-.706.24-.29.432-.63.576-1.022.144-.39.216-.802.216-1.234 0-.434-.072-.842-.216-1.226-.144-.384-.336-.72-.576-1.006-.256-.29-.548-.516-.876-.684-.328-.168-.676-.252-1.044-.252-.4 0-.768.084-1.104.252-.336.168-.624.394-.864.684-.256.286-.452.622-.588 1.006-.136.384-.204.792-.204 1.226 0 .432.068.844.204 1.234.136.392.324.732.566 1.022.238.286.526.518.862.694.336.176.704.264 1.104.264zm0-8.76c.88.016 1.672.168 2.376.456.704.288 1.304.682 1.8 1.178.482.512.848 1.106 1.104 1.786.256.68.384 1.412.384 2.196 0 .786-.128 1.518-.384 2.198-.256.678-.622 1.266-1.104 1.762-.496.496-1.096.894-1.8 1.188-.704.298-1.496.454-2.376.47-.864-.016-1.648-.172-2.352-.47-.704-.294-1.296-.692-1.776-1.188-.496-.496-.872-1.08-1.128-1.752-.256-.672-.384-1.392-.384-2.16 0-.782.128-1.518.384-2.208.256-.688.626-1.288 1.104-1.8.48-.496 1.072-.892 1.776-1.186.704-.298 1.496-.454 2.376-.47zm-17.422 3.504c-.738.736-1.666 1.382-2.786 1.932-1.12.552-2.518 1.038-4.198 1.454-.082 0-.134.004-.156.012-.026.006-.054.01-.084.01-.256 0-.526-.14-.804-.42-.28-.278-.422-.674-.422-1.186 0-.336.186-.576.554-.722 2.048-.416 3.618-1.034 4.716-1.858 1.096-.824 1.642-1.764 1.642-2.822v-.312h3.048v.312c0 1.074.55 2.016 1.646 2.832 1.094.818 2.668 1.44 4.716 1.872.368.144.55.384.55.72 0 .512-.142.908-.43 1.188-.288.282-.562.42-.818.42-.032 0-.062-.004-.094-.012-.034-.008-.074-.012-.122-.012-1.63-.416-3.046-.904-4.248-1.464-1.2-.558-2.102-1.208-2.71-1.944zm-7.32 11.856h11.208c.286 0 .432-.222.432-.672v-.478h-11.64v-2.282h5.83v-1.56h-8.806v-2.328h19.992c.384 0 .576.258.576.77 0 1.038-.36 1.558-1.08 1.558h-7.73v1.56h4.584c.832 0 1.248.408 1.248 1.224v.578c0 .846-.058 1.518-.178 2.014-.12.496-.278.874-.468 1.128-.208.274-.444.446-.708.518-.266.072-.54.106-.828.106h-9.456v.624c0 .368.182.552.552.552h10.992c.368 0 .55.232.55.696 0 1.056-.358 1.584-1.08 1.584H277.53c-.914 0-1.596-.188-2.052-.562-.456-.378-.684-.996-.684-1.862v-3.168zm-4.752 2.76c0 2-.584 3-1.752 3h-.456c-.544 0-.816-.256-.816-.768V29.19h3.024v18.528zm-6.36-15.406c0 2.798-.816 5.23-2.448 7.294-1.632 2.064-3.832 3.664-6.6 4.802-.56.24-1.024.008-1.392-.698-.352-.688-.264-1.192.264-1.512 1.04-.416 1.976-.944 2.808-1.584.832-.638 1.6-1.374 2.304-2.206 1.36-1.65 2.04-3.554 2.04-5.714h-7.032V30.27h8.808c.832 0 1.248.4 1.248 1.2v.842zm-14.496 6.432c0 2-.584 3-1.752 3h-.408c-.528 0-.792-.256-.792-.768V29.19h2.952v4.488h2.736c.384 0 .576.264.576.792 0 1.09-.36 1.632-1.08 1.632h-2.232v2.642zm-10.968.072c.64 0 1.172-.232 1.596-.698.424-.462.636-1.024.636-1.68 0-.302-.056-.6-.168-.888-.112-.288-.264-.536-.456-.742-.208-.21-.448-.378-.72-.506-.272-.128-.568-.192-.888-.192-.32 0-.616.064-.888.192s-.504.296-.696.506c-.192.206-.344.454-.456.742-.112.288-.168.586-.168.888 0 .656.208 1.218.624 1.68.416.466.944.698 1.584.698zm8.016 6.286h-10.632v-2.424h12.336c.832 0 1.248.408 1.248 1.226v3.598c0 2-.584 3-1.752 3h-.408c-.528 0-.792-.254-.792-.766v-4.634zm-13.68-14.184h4.2V29h2.976v1.918h3.912c.368 0 .552.272.552.818 0 1.038-.352 1.558-1.056 1.558h-1.536c.56.37.984.858 1.272 1.464.288.608.432 1.272.432 1.992 0 .624-.116 1.208-.348 1.752-.232.544-.564 1.016-.996 1.416-.432.402-.96.72-1.584.96-.624.24-1.336.37-2.136.384-.752 0-1.44-.114-2.064-.346-.624-.234-1.16-.55-1.608-.95-.448-.382-.796-.844-1.044-1.38-.248-.534-.372-1.116-.372-1.74 0-.72.144-1.404.432-2.052.288-.646.72-1.146 1.296-1.5h-2.328v-2.376zm-3.744 16.776c0 2-.584 3-1.752 3h-.408c-.544 0-.816-.256-.816-.768V29.19h2.976v7.32h2.712c.384 0 .576.272.576.818 0 1.152-.36 1.726-1.08 1.726h-2.208v8.64zm-9.024-5.95c.272-1.618.476-3.118.612-4.5.136-1.386.204-2.66.204-3.828v-.698h-7.776v-2.424h9.48c.832 0 1.248.408 1.248 1.224v2.016c0 1.008-.068 2.13-.204 3.362-.136 1.23-.34 2.6-.612 4.104-.16.496-.56.744-1.2.744h-1.752zm-1.8-4.202v6.434h6.48c.384 0 .576.256.576.768 0 1.102-.352 1.656-1.056 1.656H211.53v-2.424h3.48v-6.434h2.976zm-9.576 10.176c0 2-.592 3-1.776 3h-.408c-.528 0-.792-.256-.792-.768V29.19h2.976v6.6h2.736c.368 0 .552.274.552.816 0 1.152-.36 1.728-1.08 1.728h-2.208v9.384zm-6.048-15.406c0 2.798-.816 5.23-2.448 7.294-1.648 2.08-3.856 3.68-6.624 4.802-.528.24-.984.008-1.368-.698-.352-.688-.264-1.192.264-1.512 1.04-.416 1.976-.944 2.808-1.584.832-.638 1.6-1.374 2.304-2.206 1.36-1.65 2.04-3.554 2.04-5.714h-7.056V30.27h8.832c.832 0 1.248.4 1.248 1.2v.842zm-18.67 4.416c.656-1.938.984-3.562.984-4.874h-11.88V29.43h13.608c.832 0 1.248.408 1.248 1.226v1.198c0 .61-.096 1.264-.29 1.97-.19.702-.456 1.438-.792 2.206-.222.466-.608.698-1.152.698h-1.726zm.624 8.374h-11.472v-2.424h5.782v-2.686h-8.806v-2.424h19.992c.384 0 .576.27.576.814 0 1.072-.36 1.61-1.08 1.61h-7.73v2.686h4.442c.832 0 1.248.402 1.248 1.2v3.384c0 1.072-.142 1.88-.42 2.424-.28.544-.726.816-1.332.816h-.408c-.53 0-.792-.254-.792-.766v-4.634z" transform="translate(-220 -998) translate(140 969)"/>
            </g>
        </g>
    </g>
</svg>
