<svg xmlns="http://www.w3.org/2000/svg" width="375" height="26" viewBox="0 0 375 26">
    <g fill="none" fill-rule="evenodd">
        <g fill="#000">
            <g>
                <path d="M213.948 72.95c7.97 0 11.067-2.435 11.067-8.033 0-5.863-3.23-7.872-11.067-7.872h-4.743V72.95h4.743zm-9.42-19.923h11.527c7.576 0 13.636 3.197 13.636 11.823 0 8.167-5.533 12.12-13.437 12.12h-11.725V53.027zm-15.593 10.638c3.821 0 5.763-.56 5.763-3.393 0-2.799-1.942-3.359-5.763-3.359h-9.025v6.752h9.025zm-13.7-10.638h14.392c5.665 0 9.75 1.284 9.75 7.145 0 4.415-3.164 6.852-6.688 7.049l7.343 9.75h-5.76l-6.951-9.42h-7.41v9.42h-4.677V53.026zM164.588 76.97h4.679V53.027h-4.679V76.97zM135 53.027h4.676v11.165l13.272-11.165h6.654l-11.428 9.484 12.58 14.46h-6.125l-9.848-11.692-5.105 4.247v7.444H135V53.027zm367.75 6.814h2.873v-7.614h3.562v14.829c0 2.545-.708 3.818-2.128 3.818h-.486c-.632 0-.948-.306-.948-.917v-7.211h-2.873V59.84zm-6.954 0c.422 0 .82-.057 1.19-.17.376-.115.707-.28.992-.488.29-.194.52-.426.692-.704.172-.28.256-.591.256-.936 0-.326-.084-.627-.256-.905-.173-.276-.403-.522-.692-.733-.285-.191-.616-.342-.992-.46-.37-.114-.768-.17-1.19-.17-.919 0-1.67.211-2.257.63-.585.422-.874.97-.874 1.638 0 .67.29 1.223.874 1.652.586.43 1.338.646 2.257.646zm-3.62 10.574h3.56v3.333c0 .613.329.92.98.92h12.326c.457 0 .69.306.69.919 0 1.324-.434 1.982-1.294 1.982h-12.986c-1.092 0-1.913-.23-2.46-.69-.545-.457-.816-1.197-.816-2.212v-4.252zm3.62-17.958c1.016.022 1.925.163 2.728.434.804.268 1.496.62 2.07 1.06.556.46.98 1.004 1.277 1.626.297.62.445 1.288.445 1.997 0 .709-.144 1.38-.428 2.009-.288.632-.712 1.18-1.267 1.638-.553.478-1.24.857-2.052 1.137-.814.275-1.74.416-2.773.416-1.015 0-1.925-.14-2.73-.416-.804-.28-1.484-.659-2.04-1.137-.576-.458-1.017-1.001-1.323-1.624-.307-.62-.457-1.278-.457-1.968 0-.709.15-1.38.457-2.011.306-.63.747-1.178 1.324-1.635.555-.463 1.235-.824 2.04-1.092.804-.27 1.714-.412 2.73-.434zM488.21 64.24h15.029c.46 0 .69.316.69.946 0 1.266-.357 1.896-1.064 1.896h-5.114v1.322c0 .94-.43 1.407-1.293 1.407h-1.681c-.184 0-.359-.01-.534-.028-.016-.173-.026-.348-.026-.53v-2.171h-6.007V64.24zm-4.135-2.33c0 2.394-.7 3.592-2.098 3.592h-.517c-.632 0-.948-.307-.948-.92V52.227h3.563v4.799h3.275c.46 0 .69.316.69.95 0 1.303-.431 1.952-1.293 1.952h-2.672v1.982zm-11.09.173c.516 0 .775-.515.775-1.552v-1.437h-5.746v2.071c0 .611.316.918.948.918h4.022zm-5.23 8.851h12.24c.345 0 .517-.287.517-.864v-.716h-12.757v-2.7h14.826c.996 0 1.494.488 1.494 1.462v.948c0 2.953-.766 4.425-2.299 4.425h-10.458v.977c0 .443.22.663.66.663h11.982c.46 0 .69.297.69.89 0 1.208-.432 1.811-1.294 1.811h-12.613c-1.992 0-2.988-.97-2.988-2.902v-3.994zm.259-17.7v3.016h5.746v-3.017h3.563v6.726c0 3.313-.853 4.968-2.557 4.968h-7.298c-2.012 0-3.017-.965-3.017-2.902v-8.792h3.563zm-6.954 21.146c0 2.394-.699 3.591-2.097 3.591h-.43c-.652 0-.978-.306-.978-.92V63.175h-2.011v10.863c0 2.395-.709 3.592-2.126 3.592h-.431c-.632 0-.948-.307-.948-.922v-24.48h3.505v7.902h2.011v-7.902h3.505V74.38zm-11.147-18.415c0 1.74-.23 3.364-.69 4.868-.46 1.506-1.082 2.868-1.868 4.094-.804 1.228-1.738 2.315-2.801 3.261-1.063.95-2.198 1.74-3.405 2.37-.21.115-.392.175-.546.175-.134 0-.297-.06-.488-.175-.192-.112-.374-.258-.546-.428-.172-.173-.316-.371-.431-.59-.115-.22-.172-.437-.172-.648 0-.266.153-.527.46-.776.9-.536 1.762-1.195 2.585-1.98.824-.785 1.552-1.676 2.184-2.672.632-.996 1.135-2.085 1.508-3.263.374-1.178.56-2.435.56-3.779h-6.493V53.52h8.648c.996 0 1.495.489 1.495 1.468v.977zm-20.946 3.33h3.362v-1.752h-3.362v-2.787h3.362v-2.529h3.591v11.438c0 2.394-.709 3.592-2.126 3.592h-.489c-.65 0-.976-.307-.976-.92v-4.254h-3.362v-2.787zm3.39 11.982h-13.015v-2.902h15.055c1.015 0 1.523.488 1.523 1.468v4.307c0 2.394-.709 3.591-2.126 3.591h-.46c-.651 0-.977-.304-.977-.917v-5.547zM415.692 58.29h8.073c.364 0 .546-.287.546-.862V56.02h-8.62v-2.787h10.66c.996 0 1.494.479 1.494 1.44v1.95c0 2.953-.756 4.428-2.27 4.428h-6.32v1.664c0 .443.22.66.66.66h9.597c.46 0 .69.307.69.92 0 1.266-.432 1.896-1.294 1.896H418.68c-1.992 0-2.988-.965-2.988-2.902v-5zm-4.367 8.59c0 2.378-.7 3.566-2.098 3.566h-.488c-.652 0-.977-.307-.977-.922V52.227h3.563v14.654zm-16.349 1.524h3.536v5.344c0 .613.314.92.949.92h11.722c.458 0 .687.306.687.919 0 1.324-.43 1.982-1.29 1.982H398.25c-1.089 0-1.91-.225-2.456-.675-.546-.45-.819-1.193-.819-2.227v-6.263zm2.845-5.2c.46 0 .885-.102 1.278-.303.393-.2.742-.483 1.049-.845.287-.347.517-.754.69-1.223.172-.467.258-.96.258-1.478 0-.52-.086-1.008-.259-1.467-.172-.46-.402-.862-.69-1.205-.306-.347-.655-.617-1.048-.819-.393-.2-.81-.301-1.25-.301-.479 0-.92.1-1.321.301-.403.202-.747.472-1.035.82-.306.342-.54.744-.704 1.204-.163.46-.244.948-.244 1.467 0 .518.081 1.01.244 1.478.163.469.388.876.678 1.223.285.343.63.62 1.032.831.402.21.843.316 1.322.316zm0-10.488c1.053.02 2.001.201 2.844.546.843.345 1.561.816 2.155 1.41.577.613 1.015 1.324 1.322 2.138.306.814.46 1.69.46 2.63s-.154 1.816-.46 2.63c-.307.812-.745 1.516-1.322 2.11-.594.594-1.312 1.07-2.155 1.422-.843.357-1.791.544-2.844.563-1.035-.02-1.973-.206-2.816-.563-.843-.352-1.552-.828-2.126-1.422-.594-.594-1.044-1.293-1.35-2.097-.307-.805-.46-1.667-.46-2.586 0-.937.153-1.818.46-2.644.306-.823.749-1.542 1.32-2.155.576-.593 1.284-1.067 2.127-1.42.843-.356 1.791-.543 2.845-.562zm-20.857 4.195c-.884.88-1.995 1.654-3.336 2.313-1.34.66-3.014 1.242-5.025 1.74-.099 0-.16.005-.187.015-.031.007-.065.012-.1.012-.307 0-.63-.168-.963-.503-.336-.333-.505-.807-.505-1.42 0-.402.222-.69.663-.864 2.452-.498 4.331-1.238 5.646-2.225 1.312-.986 1.965-2.111 1.965-3.378v-.374h3.65v.374c0 1.286.658 2.413 1.97 3.39 1.31.98 3.194 1.724 5.646 2.241.44.173.658.46.658.862 0 .613-.17 1.087-.515 1.423-.345.337-.673.502-.979.502-.038 0-.074-.004-.113-.014-.04-.01-.088-.014-.146-.014-1.951-.498-3.646-1.083-5.085-1.753-1.437-.668-2.517-1.446-3.244-2.327zM368.2 71.104h13.418c.342 0 .517-.265.517-.804v-.572H368.2v-2.732h6.98v-1.868h-10.542v-2.787h23.933c.46 0 .69.309.69.922 0 1.243-.431 1.865-1.293 1.865h-9.254v1.868h5.488c.996 0 1.494.488 1.494 1.465v.692c0 1.013-.07 1.817-.213 2.411-.144.594-.333 1.046-.56 1.35-.25.328-.532.534-.848.62-.319.087-.647.127-.992.127h-11.32v.748c0 .44.218.66.66.66h13.16c.44 0 .659.278.659.834 0 1.264-.429 1.896-1.293 1.896h-13.473c-1.094 0-1.91-.225-2.457-.673-.546-.452-.819-1.192-.819-2.229v-3.793zm-5.689 3.305c0 2.394-.699 3.591-2.097 3.591h-.546c-.651 0-.977-.306-.977-.92V52.228h3.62V74.41zm-7.614-18.444c0 3.35-.976 6.261-2.93 8.732-1.954 2.471-4.588 4.387-7.902 5.749-.67.287-1.225.01-1.666-.836-.421-.823-.316-1.427.316-1.81 1.245-.498 2.366-1.13 3.362-1.896.996-.764 1.915-1.645 2.758-2.641 1.628-1.975 2.442-4.255 2.442-6.84h-8.418V53.52h10.544c.996 0 1.494.48 1.494 1.437v1.008zm-17.354 7.7c0 2.394-.699 3.592-2.097 3.592h-.489c-.632 0-.948-.307-.948-.92v-14.11h3.534V57.6h3.276c.46 0 .69.316.69.948 0 1.305-.432 1.954-1.294 1.954h-2.672v3.163zm-13.13.086c.766 0 1.403-.277 1.91-.835.508-.553.762-1.226.762-2.011 0-.362-.067-.719-.201-1.064-.134-.344-.316-.641-.546-.888-.25-.251-.536-.452-.862-.606-.326-.153-.68-.23-1.063-.23-.383 0-.738.077-1.063.23-.326.154-.604.355-.833.606-.23.247-.412.544-.546.888-.134.345-.202.702-.202 1.064 0 .785.25 1.458.748 2.01.498.559 1.13.836 1.896.836zm9.596 7.526h-12.728v-2.902h14.768c.996 0 1.494.488 1.494 1.468v4.307c0 2.394-.699 3.591-2.097 3.591h-.489c-.632 0-.948-.304-.948-.917v-5.547zm-16.377-16.98h5.028V52h3.563v2.296h4.683c.44 0 .661.326.661.98 0 1.242-.421 1.865-1.264 1.865h-1.839c.67.443 1.178 1.027 1.523 1.752.345.728.517 1.523.517 2.385 0 .747-.139 1.446-.417 2.097-.277.652-.675 1.217-1.192 1.696-.517.48-1.15.862-1.896 1.149-.747.287-1.6.443-2.557.46-.9 0-1.724-.137-2.471-.415-.747-.28-1.39-.658-1.925-1.137-.537-.457-.953-1.01-1.25-1.652-.297-.64-.446-1.336-.446-2.083 0-.862.173-1.68.518-2.457.344-.773.862-1.372 1.551-1.795h-2.787v-2.845zM313.15 74.38c0 2.394-.7 3.591-2.098 3.591h-.488c-.651 0-.977-.306-.977-.92V52.228h3.563v8.764h3.247c.46 0 .69.325.69.979 0 1.38-.432 2.066-1.294 2.066h-2.643V74.38zm-10.803-7.123c.325-1.937.57-3.733.732-5.388.163-1.659.245-3.184.245-4.582v-.836h-9.31V53.55h11.35c.996 0 1.494.489 1.494 1.465v2.414c0 1.207-.082 2.55-.245 4.025-.162 1.472-.407 3.112-.732 4.913-.192.594-.67.89-1.437.89h-2.097zm-2.155-5.03v7.702h7.757c.46 0 .69.306.69.92 0 1.318-.421 1.982-1.264 1.982h-14.912v-2.902h4.166v-7.703h3.563zm-11.464 12.182c0 2.394-.709 3.591-2.126 3.591h-.489c-.632 0-.948-.306-.948-.92V52.228h3.563v7.902h3.275c.44 0 .661.328.661.977 0 1.379-.43 2.068-1.293 2.068h-2.643V74.41zm-7.24-18.444c0 3.35-.978 6.261-2.931 8.732-1.973 2.49-4.617 4.406-7.93 5.749-.632.287-1.178.01-1.638-.836-.421-.823-.316-1.427.316-1.81 1.245-.498 2.366-1.13 3.362-1.896.996-.764 1.915-1.645 2.758-2.641 1.628-1.975 2.442-4.255 2.442-6.84h-8.447V53.52h10.573c.996 0 1.494.48 1.494 1.437v1.008zm-22.352 5.287c.786-2.32 1.178-4.265 1.178-5.835h-14.222v-2.902h16.291c.996 0 1.494.488 1.494 1.468v1.434c0 .73-.115 1.513-.347 2.358-.228.84-.546 1.722-.948 2.641-.266.558-.728.836-1.38.836h-2.066zm.747 10.025H246.15v-2.902h6.922v-3.216H242.53v-2.902h23.934c.46 0 .69.324.69.975 0 1.283-.431 1.927-1.293 1.927h-9.255v3.216h5.318c.996 0 1.494.481 1.494 1.436v4.052c0 1.283-.17 2.25-.502 2.902-.336.65-.87.976-1.595.976h-.489c-.634 0-.948-.304-.948-.917v-5.547z" transform="translate(-135 -52)"/>
            </g>
        </g>
    </g>
</svg>
