<svg xmlns="http://www.w3.org/2000/svg" width="20" height="20" viewBox="0 0 20 20">
    <g fill="none" fill-rule="evenodd">
        <g fill="#000">
            <g>
                <g>
                    <g>
                        <g>
                            <path d="M10 .25C4.618.25.25 4.618.25 10s4.368 9.75 9.75 9.75 9.75-4.368 9.75-9.75S15.382.25 10 .25zm0 2.925c1.618 0 2.925 1.306 2.925 2.925 0 1.619-1.307 2.925-2.925 2.925-1.618 0-2.925-1.307-2.925-2.925 0-1.619 1.307-2.925 2.925-2.925zm0 13.845c-2.438 0-4.592-1.248-5.85-3.14.03-1.94 3.9-3.003 5.85-3.003 1.94 0 5.82 1.063 5.85 3.003-1.258 1.892-3.412 3.14-5.85 3.14z" transform="translate(-327 -682) translate(0 666) translate(305 9) translate(22 7)"/>
                        </g>
                    </g>
                </g>
            </g>
        </g>
    </g>
</svg>
