<?xml version="1.0" encoding="UTF-8"?>
<svg width="125px" height="160px" viewBox="0 0 125 160" version="1.1" xmlns="http://www.w3.org/2000/svg" xmlns:xlink="http://www.w3.org/1999/xlink">
    <title>113D7A6A-CB3C-4E8A-A624-8E1A897C0979</title>
    <defs>
        <radialGradient cx="50%" cy="50%" fx="50%" fy="50%" r="50%" gradientTransform="translate(0.500000,0.500000),scale(0.127660,1.000000),rotate(90.000000),scale(1.000000,8.478794),translate(-0.500000,-0.500000)" id="radialGradient-1">
            <stop stop-color="#000000" stop-opacity="0.151032561" offset="0%"></stop>
            <stop stop-color="#000000" stop-opacity="0" offset="100%"></stop>
        </radialGradient>
        <polygon id="path-2" points="0.0159235669 0.00557324841 124.993896 0.00557324841 124.993896 125 0.0159235669 125"></polygon>
        <linearGradient x1="4.25188812%" y1="0%" x2="72.7751874%" y2="76.6779249%" id="linearGradient-4">
            <stop stop-color="#2062C1" offset="0%"></stop>
            <stop stop-color="#5282C8" offset="100%"></stop>
        </linearGradient>
    </defs>
    <g id="교육지원" stroke="none" stroke-width="1" fill="none" fill-rule="evenodd">
        <g id="UNO_010001" transform="translate(-898.000000, -623.000000)">
            <g id="alarm" transform="translate(898.000000, 623.000000)">
                <ellipse id="Oval" fill="url(#radialGradient-1)" cx="62.5" cy="152.5" rx="58.75" ry="7.5"></ellipse>
                <g id="shutterstock_401333122">
                    <g id="Group-3">
                        <mask id="mask-3" fill="white">
                            <use xlink:href="#path-2"></use>
                        </mask>
                        <g id="Clip-2"></g>
                        <path d="M124.993896,62.5026539 C124.993896,97.0191083 97.0130042,125 62.4970807,125 C27.9808917,125 0,97.0191083 0,62.5026539 C0,27.986465 27.9808917,0.00557324841 62.4970807,0.00557324841 C97.0130042,0.00557324841 124.993896,27.986465 124.993896,62.5026539" id="Fill-1" fill="#3C89F9" mask="url(#mask-3)"></path>
                    </g>
                    <path d="M122.34793,80.5522824 C123.160297,77.8550955 123.794586,75.0843949 124.238854,72.2468153 C124.243631,72.2492038 124.248142,72.2515924 124.252654,72.2539809 C123.802282,75.1037686 123.160828,77.8739384 122.34793,80.5522824" id="Fill-4" fill="#C7C6C1"></path>
                    <path d="M88.2489384,119.458599 C88.1812633,119.445594 52.1467622,92.2266454 52.1467622,92.2266454 L52.2651274,91.7592887 C53.6178344,93.2346072 54.8059979,93.5947452 55.736465,93.5947452 C56.4785032,93.5947452 57.0562633,93.3659766 57.4233015,93.2914013 C57.4233015,93.2914013 60.2776008,92.3964968 62.7327495,91.1414544 C63.2192144,90.8964968 94.6549894,69.5345011 95.8619958,68.2027601 L98.0241507,65.5748408 C98.4211783,65.0610403 98.8561571,64.5257431 98.8558917,63.6212845 C98.8550955,62.2274416 97.8197983,59.956741 94.016189,55.5368896 C93.1624204,54.5448514 92.1104034,53.8680998 90.9973461,53.8680998 C90.9487792,53.8680998 90.9002123,53.8694268 90.8516454,53.8720807 L90.7553079,53.7924628 C90.617569,53.8091826 90.4774416,53.8171444 90.3351911,53.8171444 C89.4018047,53.8171444 88.3819002,53.4726645 87.4089703,52.9888535 C85.1042994,51.8455414 83.0634289,49.9169321 83.0634289,49.9169321 C76.3712845,42.6950637 73.0634289,39.0578556 73.0634289,39.0578556 C69.8800425,35.1143843 66.8503185,32.6210191 66.8503185,32.6210191 C65.9883227,32.0151274 65.1228769,31.5212314 64.2672505,31.1218153 L64.3548301,30.6555202 C64.3548301,30.6555202 121.483546,70.8574841 124.238854,72.2468153 C123.794586,75.0843949 123.160297,77.8550955 122.34793,80.5522824 C116.878981,98.572983 103.62845,112.496815 88.257431,119.459926 L88.2489384,119.458599 Z" id="Fill-5" fill="url(#linearGradient-4)"></path>
                    <path d="M64.8111193,92.1126574 C67.8399324,90.8859265 70.1553896,89.7957407 71.7574909,88.8421002 C73.0655766,88.0634705 74.436653,87.2779111 76.108453,86.0868229 C76.5271791,85.7884978 77.2120469,85.2083241 78.1630562,84.3463018 C78.2884571,84.4494394 78.3925446,84.5626855 78.4753185,84.6860403 C80.9286093,88.3420913 79.9933652,93.2672505 76.3866773,95.6876327 C72.7794586,98.1080149 67.8665074,97.1069533 65.4132166,93.4516985 C65.2392174,93.1923284 65.0385183,92.7459814 64.8111193,92.1126574 Z" id="Fill-6" fill="#EC9F07"></path>
                    <path d="M46.4944268,28.440552 C47.7688429,30.3134289 47.3970276,32.7879512 45.6640127,33.9676221 C43.9302017,35.1470276 41.4920382,34.5846603 40.2173567,32.711518 C38.9424098,30.8386412 39.3142251,28.3638535 41.0480361,27.184448 C42.7807856,26.0047771 45.2197452,26.566879 46.4944268,28.440552 Z M39.7043524,25.2096603 C36.8808386,27.1313694 36.22638,31.0918259 38.2430998,34.0549363 C40.2592887,37.0188429 44.1833864,37.8630573 47.0071656,35.9416136 C49.8309448,34.0201699 50.4854034,30.0605096 48.4686837,27.0963376 C46.4519639,24.1332272 42.5281316,23.288482 39.7043524,25.2096603 L39.7043524,25.2096603 Z" id="Fill-8" fill="#FFD504"></path>
                    <path d="M94.016189,55.5368896 C93.1252654,54.5015924 92.0183121,53.8097134 90.8516454,53.8720807 L90.7553079,53.7924628 C87.5748408,54.1794055 83.0634289,49.9169321 83.0634289,49.9169321 C76.3712845,42.6950637 73.0634289,39.0578556 73.0634289,39.0578556 C69.8800425,35.1143843 66.8503185,32.6210191 66.8503185,32.6210191 C59.5026539,27.4559448 51.927017,30.4447983 51.927017,30.4447983 L49.7200106,31.4469214 L44.0514862,35.3596072 L41.8869427,36.8325372 C37.3208599,41.5504246 37.1159766,46.8001592 37.1159766,46.8001592 C36.4588641,52.6913482 39.6913482,57.7680467 39.6913482,57.7680467 C40.7035563,59.8208599 42.7303609,64.0987261 43.2553079,65.2091295 C43.3367834,65.381104 43.3819002,65.4766454 43.3819002,65.4766454 C47.8503185,73.2677813 48.6889597,77.0305202 48.6889597,77.0305202 C49.4023355,81.0995223 48.5886412,82.5968684 48.5886412,82.5968684 L48.6021762,82.5881104 C48.087845,83.6579087 48.4126858,84.9198514 48.9625796,86.1942675 C52.9150743,95.3481953 56.248673,93.5299894 57.4233015,93.2914013 C57.4233015,93.2914013 60.2776008,92.3964968 62.7327495,91.1414544 C83.4893843,80.6932059 94.2258493,70.0079618 95.8619958,68.2027601 L98.0241507,65.5748408 C99.0329087,64.2693737 100.287951,62.8251062 94.016189,55.5368896" id="Fill-9" fill="#FFD504"></path>
                    <path d="M80.5098195,50.220276 C74.2680467,43.5525478 71.1841826,40.1934713 71.1841826,40.1934713 C68.2221338,36.545913 65.3853503,34.2542463 65.3853503,34.2542463 C58.4933652,29.5212314 51.2704352,32.4267516 51.2704352,32.4267516 L49.5156582,33.2340764 C52.5719214,33.2064756 57.5045117,33.9161359 61.7529193,37.9843418 C61.7529193,37.9843418 64.4583333,41.0138004 67.0602442,45.566879 C67.0602442,45.566879 69.8479299,49.8211253 75.5116773,58.287155 C75.5116773,58.287155 76.8516454,60.0175159 78.639862,61.4729299 C82.0995223,58.285828 84.4487792,55.2669851 84.5854565,53.0355626 L84.5873142,53.0366242 C82.4187898,51.9970807 80.5098195,50.220276 80.5098195,50.220276" id="Fill-13" fill="#EC9F07"></path>
                </g>
            </g>
        </g>
    </g>
</svg>