<svg xmlns="http://www.w3.org/2000/svg" width="80" height="32" viewBox="0 0 80 32">
    <g fill="none" fill-rule="evenodd">
        <g>
            <g>
                <g transform="translate(-1072 -905) translate(552 243) translate(520 662)">
                    <rect width="69" height="20" y="11.5" fill="#E6292B" rx="2"/>
                    <text fill="#FFF" font-family="NotoSansCJKkr-Black, Noto Sans CJK KR" font-size="10" font-weight="700">
                        <tspan x="14.66" y="25.5">LIVE GO</tspan>
                    </text>
                    <g fill="#E6292B">
                        <path d="M6.183 12c-.21 0-.419-.077-.578-.233-2.14-2.077-2.14-5.457 0-7.535.319-.31.836-.31 1.156 0 .319.31.319.813 0 1.123-1.502 1.458-1.502 3.832 0 5.29.319.31.319.813 0 1.122-.16.156-.37.233-.578.233" transform="scale(-1 1) rotate(45 -35.104 -81.783)"/>
                        <path d="M4.919 15.646c-.24 0-.48-.08-.662-.242C2.062 13.466.854 10.888.854 8.146c0-2.741 1.208-5.319 3.403-7.258.366-.322.958-.322 1.323 0 .365.323.365.846 0 1.169-3.802 3.358-3.802 8.821 0 12.18.365.322.365.845 0 1.167-.183.162-.422.242-.661.242" transform="scale(-1 1) rotate(45 -35.104 -81.783)"/>
                    </g>
                </g>
            </g>
        </g>
    </g>
</svg>
