<svg xmlns="http://www.w3.org/2000/svg" width="80" height="80" viewBox="0 0 80 80">
    <g fill="none" fill-rule="evenodd">
        <g>
            <g transform="translate(-1160 -332) translate(1160 332)">
                <circle cx="40" cy="40" r="40" fill="#F2F2F2"/>
                <path fill="#7F7F7F" d="M59 41.583V59h-4V41.583h4zm-34 0V59h-4V41.583h4zM52.667 21v38H41.583v-6.333h-3.166V59H27.333V21h25.334zM36.833 44.75h-4.75v3.167h4.75V44.75zm11.084 0h-4.75v3.167h4.75V44.75zm-11.084-6.333h-4.75v3.166h4.75v-3.166zm11.084 0h-4.75v3.166h4.75v-3.166zm-11.084-6.334h-4.75v3.167h4.75v-3.167zm11.084 0h-4.75v3.167h4.75v-3.167zM36.833 25.75h-4.75v3.167h4.75V25.75zm11.084 0h-4.75v3.167h4.75V25.75z"/>
            </g>
        </g>
    </g>
</svg>
