<svg xmlns="http://www.w3.org/2000/svg" width="706" height="508" viewBox="0 0 706 508">
    <g fill="none" fill-rule="evenodd">
        <g>
            <g>
                <path fill="#EBF3FF" d="M29.482 504.893c-.248-.585-76.3-93.795 19.464-191.25 47.45-48.288-43.574-110.848 0-164.562C97.41 89.342 145.54 90.234 190.18 91.126c24.113.481 47.21.963 68.789-8.113 10.872-4.568 21.78-11.92 32.7-23.202 6.147-6.344 12.882-11.893 20.094-16.683 1.107-.738 2.223-1.458 3.351-2.157 4.32-2.678 8.796-5.1 13.407-7.277 3.099-1.46 6.255-2.812 9.471-4.053 5.103-1.972 10.344-3.673 15.696-5.11 7.599-2.044 15.426-3.563 23.406-4.592 3.48-.452 6.99-.805 10.524-1.073 68.748-5.168 146.112 23.902 186.039 66.39 8.037 8.555 44.589 52.825 15.777 113.673-18.192 38.417 58.017 75.108 85.101 118.977 68.85 111.537 1.071 186.9.447 188.355-44.457 0-645.5-1.296-645.5-1.368z" transform="translate(-237 -186) translate(237 186)"/>
                <path fill="#DBE8FE" d="M478.964 293.897l-19.629-29.421-11.778-43.986-.093-.35h-17.706l-31.941-47.879c2.991.53 7.044 3.097 12.21 6.582 1.89 1.277 3.321 1.804 4.449 1.804 4.203 0 4.212-7.32 8.283-10.473.96-.743 2.205-1.031 3.597-1.031 2.388 0 5.217.847 7.812 1.695 2.595.847 4.953 1.695 6.405 1.695.801 0 1.323-.26 1.455-.92.747-3.75-4.719-5.737-9.459-7.15-4.743-1.413-6.531-3.302-2.184-10.998 4.341-7.698-.771-5.535-3.927-14.724-1.434-4.177-4.143-6.26-6.669-7.286-2.178.446-4.344.977-6.477 1.588-4.476 1.28-8.838 2.915-13.041 4.884-6.378 2.982-12.396 6.73-17.907 11.173 5.511-4.443 11.529-8.19 17.907-11.173 4.203-1.97 8.565-3.603 13.041-4.884 2.133-.611 4.299-1.142 6.477-1.588 5.727-1.178 11.598-1.787 17.529-1.787 9.906 0 19.983 1.699 29.838 5.28 2.088.76 4.131 1.59 6.123 2.49 2.814 1.265 5.529 2.665 8.142 4.19 11.007 6.418 20.217 15.03 27.279 25.055l.003.002c4.401 6.242 7.965 13.029 10.602 20.18 1.386 3.755 2.517 7.608 3.375 11.533.537 2.444.972 4.912 1.299 7.406.786 5.99.948 12.102.453 18.245-.594-.587-1.281-1.018-2.055-1.276 0 0 1.374-2.284-9.576-5.336-10.95-3.053-6.276-15.269-16.203-17.95-1.905-.514-3.48-.713-4.842-.713-2.277 0-3.948.558-5.544 1.115-1.593.557-3.111 1.114-5.088 1.114-1.005 0-2.13-.144-3.444-.508-2.202-.608-4.359-.94-6.306-.94-5.13 0-8.751 2.312-7.605 7.943 1.584 7.765-7.464 5.867-5.715 15.084 1.752 9.217 12.219 9.775 20.82 10.351 8.604.577-4.785 11.248.933 19.124 5.718 7.877 17.058 9.215 10.953 13.256-6.108 4.044-17.709 12.348-8.955 20.169 1.86 1.665 4.071 2.487 6.501 2.562-2.991 2.148-6.114 4.104-9.342 5.853m27.186-99.279c3.87 0 5.802 2.813 7.875 5.626 2.076 2.812 4.296 5.625 8.748 5.625.384 0 .786-.021 1.206-.065-.327-2.494-.762-4.962-1.299-7.406-.858-3.925-1.989-7.778-3.375-11.533-2.637-7.151-6.201-13.938-10.602-20.18l-.003-.002c-.549-.146-1.095-.218-1.632-.218l-.09.001s-3.543-1.953-7.086-1.953c-1.857 0-3.711.538-5.055 2.178-3.897 4.766-12.216-.42-15.243 6.207-3.027 6.632 11.868 3.08 16.29 9.632 4.17 6.187 1.002 12.186 8.136 12.186.426 0 .885-.02 1.386-.065.255-.022.504-.033.744-.033m-64.242-54.78c-3.486 0-5.343 3.287-3.384 8.237 2.19 5.528 2.568 14.145 6.279 14.145.594 0 1.272-.22 2.055-.708 5.004-3.113 6.087-6.6 9.492-6.6.471 0 .987.068 1.566.212 0 0 7.08-5.011.423-9.668-6.657-4.657-7.461-2.02-12.972-4.716-1.257-.615-2.43-.901-3.459-.901" transform="translate(-237 -186) translate(237 186)"/>
                <path fill="#9CC3FE" d="M414.476 180.647c-1.128 0-2.559-.527-4.449-1.804-5.166-3.485-9.219-6.051-12.21-6.582L382.364 149.1c5.511-4.443 11.529-8.19 17.907-11.173 4.203-1.97 8.565-3.603 13.041-4.884 2.133-.611 4.299-1.142 6.477-1.588 2.526 1.025 5.235 3.109 6.669 7.286 3.156 9.189 8.268 7.026 3.927 14.724-4.347 7.696-2.559 9.585 2.184 10.998 4.74 1.413 10.206 3.4 9.459 7.15-.132.66-.654.92-1.455.92-1.452 0-3.81-.848-6.405-1.695-2.595-.848-5.424-1.695-7.812-1.695-1.392 0-2.637.288-3.597 1.031-4.071 3.153-4.08 10.472-8.283 10.473M488.306 288.044c-2.43-.075-4.641-.897-6.501-2.562-8.754-7.821 2.847-16.125 8.955-20.169 6.105-4.041-5.235-5.379-10.953-13.256-5.718-7.876 7.671-18.547-.933-19.124-8.601-.576-19.068-1.134-20.82-10.35-1.749-9.218 7.299-7.32 5.715-15.085-1.146-5.631 2.475-7.943 7.605-7.943 1.947 0 4.104.332 6.306.94 1.314.364 2.439.508 3.444.508 1.977 0 3.495-.557 5.088-1.114 1.596-.557 3.267-1.115 5.544-1.115 1.362 0 2.937.199 4.842.714 9.927 2.68 5.253 14.896 16.203 17.949 10.95 3.052 9.576 5.336 9.576 5.336.774.258 1.461.69 2.055 1.276-.615 7.642-2.256 15.334-5.004 22.889-1.833 5.047-4.086 9.828-6.705 14.31-6.285 10.758-14.664 19.803-24.417 26.796M522.773 205.869c-4.452 0-6.672-2.813-8.748-5.625-2.073-2.813-4.005-5.626-7.875-5.626-.24 0-.489.011-.744.033-.501.044-.96.065-1.386.065-7.134 0-3.966-5.999-8.136-12.186-4.422-6.552-19.317-3-16.29-9.632 3.027-6.627 11.346-1.441 15.243-6.207 1.344-1.64 3.198-2.178 5.055-2.178 3.543 0 7.086 1.953 7.086 1.953h.09c.537 0 1.083.07 1.632.217l.003.002c4.401 6.242 7.965 13.029 10.602 20.18 1.386 3.755 2.517 7.608 3.375 11.533.537 2.444.972 4.912 1.299 7.406-.42.044-.822.065-1.206.065M444.803 162.22c-3.711 0-4.089-8.617-6.279-14.145-1.959-4.95-.102-8.236 3.384-8.236 1.029 0 2.202.286 3.459.9 5.511 2.697 6.315.06 12.972 4.717 6.657 4.657-.423 9.668-.423 9.668-.579-.144-1.095-.211-1.566-.211-3.405 0-4.488 3.486-9.492 6.599-.783.488-1.461.708-2.055.708" transform="translate(-237 -186) translate(237 186)"/>
                <path fill="#A8D29F" d="M49.332 505.142h30.48c1.633-1.386-1.13-4.533-4.018-4.743-1.255-.096-2.84.168-4.652.549-.42-5.571-2.815-30.612-11.842-29.607-10.15 1.128 0 11.028 2.87 16.89 2.125 4.344 4.367 10.569 5.391 13.509-.823.18-1.677.354-2.548.513-1.345-4.128-6.351-18.024-12.717-17.214-7.474.948-4.47 6.519.828 9.825 3.886 2.433 8.659 5.889 10.926 7.557-1.921.315-3.926.525-5.96.48-5.221-.126-7.77 1.413-8.758 2.241M534.401 505.142h-28.308c-1.518-1.287 1.05-4.209 3.732-4.407 1.164-.087 2.637.156 4.32.513.39-5.175 2.613-28.437 10.998-27.501 9.429 1.047 0 10.242-2.664 15.69-1.974 4.032-4.056 9.816-5.01 12.546.768.165 1.56.327 2.37.477 1.248-3.837 5.898-16.743 11.811-15.99 6.942.879 4.152 6.054-.768 9.126-3.612 2.259-8.043 5.469-10.149 7.02 1.782.291 3.645.486 5.535.444 4.851-.117 7.218 1.314 8.133 2.082" transform="translate(-237 -186) translate(237 186)"/>
                <path fill="#FFB27D" d="M554.621 319.568s.675-6.702-2.832-6.474c-3.504.231-4.431 1.839-4.041 3.126.393 1.287 3.801 5.55 3.801 5.55l3.072-2.202" transform="translate(-237 -186) translate(237 186)"/>
                <path fill="#739AF0" d="M609.23 332.996s-3.882 4.56-12.225 9.819c-.789.501-1.617 1.002-2.487 1.509-3.24 1.887-7.041 3.822-11.43 5.625-.483.198-1.05.417-1.689.645-4.998 1.806-14.199 4.365-19.899 4.596-.498.018-.966.018-1.404.003-8.679-.351-9.735-34.029-9.735-34.029s.966-3.369 5.424-2.52c0 0 6.768 19.02 9.195 20.568 2.157 1.38 14.541-17.397 25.203-18.711 7.179-.882 19.047 12.495 19.047 12.495" transform="translate(-237 -186) translate(237 186)"/>
                <path fill="#1C3154" d="M585.917 497.222s.642 7.413-.924 8.184l-20.055-.039s0-2.316 3.219-2.829c3.222-.516 8.88-2.4 9.84-6.603.957-4.2 7.92 1.287 7.92 1.287" transform="translate(-237 -186) translate(237 186)"/>
                <path fill="#2A4E96" d="M571.196 407.498c.099 4.848.33 9.846.786 14.34 2.166 21.324 2.928 47.088 3.24 52.056.54 8.622 2.241 22.398 2.241 22.398s3.381 3.207 9.966 1.677c0 0 5.457-19.842 6.675-40.731l.054-1.032c.141-2.763.291-5.922.441-9.327 1.005-22.809 2.094-56.694 2.094-56.694l-25.167-5.91s-.579 11.139-.33 23.223" transform="translate(-237 -186) translate(237 186)"/>
                <path fill="#233862" d="M571.196 407.498c6.378 11.004 18.534 31.275 23.403 39.381 1.005-22.809 2.094-56.694 2.094-56.694l-25.167-5.91s-.579 11.139-.33 23.223" transform="translate(-237 -186) translate(237 186)"/>
                <path fill="#6385DB" d="M581.399 350.594c-4.998 1.806-14.199 4.365-19.899 4.596.87-.165 7.218-1.422 9.567-4.257 2.52-3.045 6.768-11.322 10.143-7.944 1.59 1.59 1.125 4.731.189 7.605" transform="translate(-237 -186) translate(237 186)"/>
                <path fill="#FFB27D" d="M623.687 403.913s1.563 6.126 1.305 7.485c-.255 1.362-1.779 5.973-2.73 7.116-.951 1.146-.99-4.971-1.623-5.931-.633-.963-.291 2.283-.798 2.547-.504.267-1.35-2.457-1.728-3.423-.375-.963 1.353-4.323 1.512-6.732.159-2.409 4.062-1.062 4.062-1.062" transform="translate(-237 -186) translate(237 186)"/>
                <path fill="#1C3154" d="M635.876 488.798s3.57 3.255 2.874 5.571c-.696 2.316-3.918 3.858-4.353 6.687-.435 2.829-2.175 4.371-3.744 4.371h-7.47s-1.155-1.989 1.632-2.589c2.787-.6 3.837-3.927 3.663-7.011-.174-3.087.261-7.203.261-7.203l5.919-1.371 1.218 1.545" transform="translate(-237 -186) translate(237 186)"/>
                <path fill="#2A4E96" d="M575.492 390.701s23.559 50.406 36.096 72.522c12.537 22.116 16.455 28.29 16.455 28.29s7.182-2.829 7.833-4.758c0 0-4.794-42.699-13.188-53.106-4.746-5.883-10.317-23.532-10.578-29.703-.261-6.174-5.766-20.904-5.766-20.904l-30.852 7.659" transform="translate(-237 -186) translate(237 186)"/>
                <path fill="#739AF0" d="M571.103 388.079s7.671 8.256 20.706 10.749c5.721 1.095 17.334 2.151 20.214-1.92.675-.957.681-2.373.531-4.584-.387-5.745-1.833-16.854 4.692-39.177.609-2.076 1.017-4.068 1.254-5.967 1.425-11.418 1.272-20.04-8.637-24.645-14.847-6.9-20.94-1.224-20.94-1.224s-7.896 3.69-11.502 14.442c-7.215 21.51-6.318 52.326-6.318 52.326" transform="translate(-237 -186) translate(237 186)"/>
                <path fill="#FFB27D" d="M600.95 320.639c-2.499 1.776-6.897 2.823-11.088.726-.324-.162-.285-2.379-.204-4.557.081-2.136.282-4.233.282-4.233l5.283-3.468 5.04-3.306c-.603 11.37 1.815 14.031.687 14.838" transform="translate(-237 -186) translate(237 186)"/>
                <path fill="#ED985F" d="M599.378 310.493s-3.429 5.145-9.72 6.315c.081-2.136.309-4.491.309-4.491l5.256-3.21 4.155 1.386" transform="translate(-237 -186) translate(237 186)"/>
                <path fill="#FFB27D" d="M585.209 311.237s12.78 4.77 15.624-3.105c2.844-7.875 6.408-12.561-1.632-15.939-8.037-3.378-10.716-.942-12.315 1.455-1.599 2.397-4.926 16.146-1.677 17.589" transform="translate(-237 -186) translate(237 186)"/>
                <path fill="#2C3A64" d="M608.795 293.078c.147-.114.444-.171 1.068-.081 0 0-.432-.405-1.086-.552.039-.882-.117-2.487-1.515-3.144 0 0 .708.576.63 1.506-1.359-2.088-4.761-4.086-15.042-5.286-13.545-1.581-10.836 7.827-9.312 9.186 1.527 1.359 6.426-.573 9.591.318 3.168.891 2.862 5.661 3.828 6.516.963.852.759-.36 2.367-.735 1.608-.378 1.266 2.097.525 3.606-.741 1.506.873 4.005.873 4.005l2.487-1.803c2.487-1.803 6.267-10.776 5.73-12.954l-.144-.582" transform="translate(-237 -186) translate(237 186)"/>
                <path fill="#6385DB" d="M612.554 392.324c-.387-5.745-1.833-16.854 4.692-39.177.609-2.076 1.017-4.068 1.254-5.967-4.848-1.599-13.683 1.959-13.683 1.959s-2.076 29.508 7.737 43.185" transform="translate(-237 -186) translate(237 186)"/>
                <path fill="#739AF0" d="M612.536 324.029s5.964 2.169 9.771 17.961c2.514 10.437 7.14 25.773 7.662 30.594.522 4.821-5.289 33.039-5.289 33.039s-.822.597-2.829.195c-1.923-.384-2.817-1.683-2.817-1.683s-1.392-18.81-1.032-27.69c.15-3.69-17.079-27.021-26.379-30.027-3.651-1.179 20.913-22.389 20.913-22.389" transform="translate(-237 -186) translate(237 186)"/>
                <path fill="#AEC3FF" d="M529.097 303.584s17.241-.492 37.14 3.171l2.076-5.238 2.28-5.739s-19.974-8.598-31.98-20.574l-9.516 28.38" transform="translate(-237 -186) translate(237 186)"/>
                <path fill="#F99746" d="M538.886 274.925l-9.9 29.223c-1.446-.429-2.238-1.983-1.734-3.408l8.712-24.552c.423-1.188 1.767-1.77 2.922-1.263M548.336 325.331c1.923.387 3.813-.873 4.197-2.799l3.408-17.055c.387-1.923-.873-3.813-2.799-4.197-1.926-.384-3.813.876-4.2 2.799l-3.408 17.055c-.384 1.923.876 3.813 2.802 4.197" transform="translate(-237 -186) translate(237 186)"/>
                <path fill="#739AF0" d="M529.097 303.584s17.241-.492 37.14 3.171l2.076-5.238c-18.693-3.816-39.216 2.067-39.216 2.067" transform="translate(-237 -186) translate(237 186)"/>
                <path fill="#F99746" d="M560.735 305.702l5.388.948c-.084.003 5.004.99 6.672-3.519.153-.309.249-.612.318-.972 1.296-5.619-1.788-6.654-1.788-6.654l-6.936-2.703-2.202 7.797v.027l-1.452 5.076" transform="translate(-237 -186) translate(237 186)"/>
                <path fill="#ED7D2B" d="M560.735 305.702l5.388.948c-.084.003 5.004.99 6.672-3.519-3.048-2.217-10.608-2.532-10.608-2.532v.027l-1.452 5.076" transform="translate(-237 -186) translate(237 186)"/>
                <path fill="#FFB27D" d="M548.795 308.819s2.634 1.05 2.151 2.211c-.483 1.158-3.834 2.754-4.362 1.839s.552-5.031 2.211-4.05M554.672 318.512s.498-2.697.528-3.936c.03-1.239.177-2.25-.114-2.286-.294-.033-.504.195-.624.594-.12.396-.576 2.868-.576 2.868l.231 2.382.555.378" transform="translate(-237 -186) translate(237 186)"/>
                <path fill="#7599EA" d="M293.993 316.751l-14.931 177.54s-1.563 10.764 6.441 10.782c13.161.033 65.514 0 65.514 0s-9.909-2.241-9.789-7.281c.144-5.94 17.454-182.721 17.454-182.721l-64.689 1.68" transform="translate(-237 -186) translate(237 186)"/>
                <path fill="#90AFF4" d="M355.943 501.923c-2.589.009-53.271.093-66.087-.072-5.586-.069-6.567-4.965-6.612-8.136-.024-1.518.168-2.643.168-2.643l14.931-177.543 64.689-1.68s-7.29 73.983-12.447 127.836c-.576 6-1.125 11.751-1.629 17.124-.165 1.713-.324 3.39-.477 5.022-.477 5.094-.915 9.774-1.296 13.905-.201 2.178-.384 4.2-.552 6.054-.66 7.263-1.044 11.901-1.05 12.783-.003.513.042.99.126 1.437 1.062 5.658 9.264 5.913 10.236 5.913" transform="translate(-237 -186) translate(237 186)"/>
                <path fill="#AEC3FF" d="M136.896 220.141L195.186 454.289 509.9 454.289 447.464 220.141 136.896 220.141" transform="translate(-237 -186) translate(237 186)"/>
                <path fill="#90AFF4" d="M136.895 220.14L131.855 221.82 188.485 459.371 195.187 454.289 136.895 220.14" transform="translate(-237 -186) translate(237 186)"/>
                <path fill="#7599EA" d="M188.485 459.371L501.263 459.371 509.9 454.289 195.187 454.289 188.485 459.371" transform="translate(-237 -186) translate(237 186)"/>
                <path fill="#AEC3FF" d="M298.322 505.142L366.044 505.142 366.044 501.923 298.322 501.923z" transform="translate(-237 -186) translate(237 186)"/>
                <path fill="#5888DD" d="M348.83 459.371L348.479 461.831 284.792 474.698 286.082 459.371 348.83 459.371" transform="translate(-237 -186) translate(237 186)"/>
                <path fill="#7A9FEB" d="M355.943 501.923h-54.6c-4.878-.015-8.934-.039-11.487-.072-5.586-.069-6.567-4.965-6.612-8.136l63.387-11.925c-.66 7.263-1.044 11.901-1.05 12.783v.048c0 .495.045.957.126 1.389 1.062 5.658 9.264 5.913 10.236 5.913" transform="translate(-237 -186) translate(237 186)"/>
                <path fill="#8CABF1" d="M324.938 501.953c-8.232 0-16.728-.009-23.595-.03h54.6c-1.347.006-15.723.03-31.005.03" transform="translate(-237 -186) translate(237 186)"/>
                <path fill="#AEC3FF" d="M136.895 220.14L447.464 220.14 497.852 408.323 183.743 408.323 136.895 220.14" transform="translate(-237 -186) translate(237 186)"/>
                <path fill="#74A6FC" d="M483.206 400.166L192.419 400.166 165.689 293.684 165.135 291.47 149.759 230.221 436.352 230.221 465.311 335.267 465.311 335.27 466.859 340.886 483.206 400.166" transform="translate(-237 -186) translate(237 186)"/>
                <path fill="#3C89F9" d="M441.899 250.341L154.81 250.341 149.76 230.22 436.355 230.22 441.899 250.341" transform="translate(-237 -186) translate(237 186)"/>
                <path fill="#E9F3FE" d="M161.616 239.313c-.346-1.389.5-2.515 1.888-2.515 1.39 0 2.796 1.126 3.143 2.515.346 1.39-.5 2.516-1.888 2.516-1.39 0-2.797-1.127-3.143-2.516M169.974 239.313c-.347-1.389.499-2.515 1.888-2.515 1.389 0 2.796 1.126 3.142 2.515.346 1.39-.499 2.516-1.888 2.516-1.39 0-2.796-1.127-3.142-2.516M178.973 239.313c-.347-1.389.499-2.515 1.888-2.515 1.389 0 2.796 1.126 3.142 2.515.347 1.39-.499 2.516-1.888 2.516-1.39 0-2.796-1.127-3.142-2.516" transform="translate(-237 -186) translate(237 186)"/>
                <path fill="#FF9252" d="M379.343 113.248c11.754-13.8 29.877-41.519 42.078-55.714 2.511-2.922.426-7.43-3.429-7.43h-22.203l20.943-47.358c.894-2.022-1.86-3.633-3.183-1.862l-50.64 67.778c-1.476 1.977.138 4.76 2.589 4.458l25.134-3.095-14.955 41.08c-.822 2.262 2.106 3.975 3.666 2.143" transform="translate(-237 -186) translate(237 186)"/>
                <path fill="#AEC3FF" d="M274.808 197.298c2.643-13.561 4.311-38.751 7.107-52.744.573-2.88-2.499-5.094-5.058-3.653l-14.745 8.306-3.804-39.288c-.165-1.677-2.595-1.717-2.814-.045l-8.28 63.958c-.243 1.866 1.872 3.11 3.387 1.993l15.537-11.458 5.433 32.879c.3 1.81 2.886 1.852 3.237.052" transform="translate(-237 -186) translate(237 186)"/>
                <path fill="#E6EFFF" d="M495.908 404.174l-252.669 21.285c-19.188 1.617-33.072-17.94-25.215-35.52L325.07 150.368c8.121-18.175 33.084-20.278 44.13-3.718l145.623 218.284c10.686 16.017.27 37.623-18.915 39.24" transform="translate(-237 -186) translate(237 186)"/>
                <path fill="#FF9252" d="M346.844 145.04c-5.784.488-10.65 3.942-13.017 9.24L226.778 393.855c-2.289 5.124-1.716 10.914 1.533 15.492 3.249 4.578 8.529 7.029 14.121 6.558l252.669-21.288c5.595-.471 10.389-3.771 12.825-8.829 2.439-5.055 2.034-10.86-1.08-15.531L361.223 151.973c-3.222-4.829-8.598-7.42-14.379-6.932m149.868 268.688l-252.669 21.288c-12.426 1.047-24.156-4.398-31.374-14.568-7.218-10.167-8.49-23.037-3.402-34.422l107.046-239.572c5.259-11.772 16.071-19.447 28.92-20.53 12.849-1.082 24.792 4.676 31.947 15.402l145.623 218.285c6.921 10.374 7.818 23.271 2.403 34.506-5.415 11.232-16.068 18.564-28.494 19.611" transform="translate(-237 -186) translate(237 186)"/>
                <path fill="#FF9252" d="M379.988 321.809l-36.396 3.066-15.633-123.92 46.707-3.936 5.322 124.79zm-39.066 45.711c-.273-3.255.054-6.315.984-9.177.93-2.859 2.37-5.391 4.323-7.593 1.953-2.199 4.371-3.996 7.26-5.382 2.886-1.383 6.198-2.238 9.942-2.553 3.738-.315 7.173-.03 10.302.849 3.129.879 5.841 2.241 8.133 4.083 2.295 1.845 4.137 4.101 5.535 6.765 1.392 2.664 2.229 5.625 2.505 8.88.273 3.258-.057 6.294-.99 9.102-.936 2.814-2.379 5.322-4.329 7.521-1.953 2.202-4.398 3.999-7.338 5.388-2.937 1.389-6.276 2.244-10.014 2.559-3.744.315-7.152.03-10.23-.852-3.078-.882-5.763-2.247-8.055-4.092-2.295-1.842-4.14-4.071-5.529-6.69-1.392-2.616-2.223-5.553-2.499-8.808z" transform="translate(-237 -186) translate(237 186)"/>
                <path fill="#FFB27D" d="M184.025 329.408s.792-1.782 1.305-2.625c.513-.843 2.705-3.315 3.078-2.754.374.558 1.866 4.326 1.073 5.379-.793 1.056.051 2.892-3.892 4.002l-1.564-4.002" transform="translate(-237 -186) translate(237 186)"/>
                <path fill="#ED7D2B" d="M140.203 318.158s20.186 16.851 28.057 15.291c6.155-1.221 15.885-4.308 15.885-4.308s2.568 2.445 1.842 5.373c0 0-12.397 11.664-21.229 11.739-13.805.117-20.316-6.84-20.316-6.84l-4.24-21.255" transform="translate(-237 -186) translate(237 186)"/>
                <path fill="#113C68" d="M104.8 495.893s.587 9.453 2.415 9.588c.244.018 9.276.018 9.276.018l11.53-.066s-.075-2.781-3.445-3.366c-3.37-.588-9.012-2.958-11.054-7.413-2.147-4.686-8.722 1.239-8.722 1.239" transform="translate(-237 -186) translate(237 186)"/>
                <path fill="#2A4E96" d="M104.136 496.547s3.505 1.173 6.242 1.173c3.052 0 5.827-.831 5.827-.831s.66-6.381 4.291-20.442c1.904-7.371 4.623-16.848 8.492-28.623 10.695-32.544 13.947-51.582 14.244-53.385.016-.093.022-.141.022-.141l-.035-.015-32.881-14.439s4.064 44.853-1.121 62.07c-.727 2.406-1.349 5.208-1.882 8.247-3.275 18.699-3.2 46.386-3.2 46.386" transform="translate(-237 -186) translate(237 186)"/>
                <path fill="#233862" d="M120.496 476.447c1.904-7.371 4.623-16.848 8.492-28.623 10.695-32.544 13.947-51.582 14.244-53.385-.003-.054-.006-.105-.013-.156l-32.881-14.439s4.064 44.853-1.121 62.07c-.727 2.406 11.28 34.533 11.28 34.533" transform="translate(-237 -186) translate(237 186)"/>
                <path fill="#15447C" d="M130.483 495.893s.586 9.453 2.415 9.588c.243.018 9.275.018 9.275.018l11.531-.066s-.076-2.781-3.446-3.366c-3.37-.588-9.012-2.958-11.053-7.413-2.148-4.686-8.722 1.239-8.722 1.239" transform="translate(-237 -186) translate(237 186)"/>
                <path fill="#2A4E96" d="M149.125 380.9s.428 29.067-4.601 64.752c-5.03 35.688-3.324 50.835-3.324 50.835s-3.455 1.119-4.85 1.233c-3.552.291-7.194-.831-7.194-.831s-7.198-35.7-5.135-53.562c2.064-17.862-9.856-61.293-9.856-61.293l34.96-1.134" transform="translate(-237 -186) translate(237 186)"/>
                <path fill="#FFB27D" d="M125.81 312.887l6.418 4.206 5.847-1.653c1.069-1.524 1.351-4.464 1.367-7.008.016-2.529-.23-4.668-.23-4.668l-8.659-3.822-3.231-1.425c.01.051.251 2.655.286 3.033.603 6.75-1.798 11.337-1.798 11.337" transform="translate(-237 -186) translate(237 186)"/>
                <path fill="#F99746" d="M149.273 388.982c-7.99 7.713-38.224 6.417-40.088-2.082-1.86-8.499 2.032-72.348 15.68-76.359 2.831-.831 17.97 4.062 17.97 4.062s2.377 6.216 3.934 14.127c.303 1.542 1.185 17.856 1.846 33.12.308 7.14.569 14.049.702 19.11.122 4.74.128 7.854-.044 8.022" transform="translate(-237 -186) translate(237 186)"/>
                <path fill="#FCA56B" d="M128.255 301.67c1.757 2.97 7.921 5.571 11.187 6.762.016-2.529-.23-4.668-.23-4.668l-8.659-3.822c-1.914-.027-3.08.402-2.298 1.728" transform="translate(-237 -186) translate(237 186)"/>
                <path fill="#FFB27D" d="M142.479 303.236s-13.953 4.353-16.53-4.377c-2.576-8.733-6.113-14.049 2.687-17.199 8.8-3.147 11.522-.33 13.09 2.376 1.57 2.706 4.316 17.844.753 19.2" transform="translate(-237 -186) translate(237 186)"/>
                <path fill="#163560" d="M141.178 283.196s-.89 10.158-2.99 9.717c-2.101-.441-4.414-1.383-4.107 1.68.308 3.06-2.043 8.313-5.073 8.298-6.497-.027-13.558-16.701-11.779-19.86 5.133-9.123 31.368-10.965 23.95.165" transform="translate(-237 -186) translate(237 186)"/>
                <path fill="#ED7D2B" d="M139.126 310.763c-.18-.075-10.387-4.656-11.58-4.26-1.195.393-2.683 4.038-2.683 4.038l17.974 4.065s-1.415-2.877-3.711-3.843" transform="translate(-237 -186) translate(237 186)"/>
                <path fill="#1F4D84" d="M202.67 360.209l-57.215 53.871c-1.122 1.056-2.536 1.392-3.143.747l-1.932-2.052c-.606-.645-.186-2.034.936-3.09l57.216-53.871c1.122-1.056 2.536-1.392 3.143-.747l1.931 2.049c.606.645.186 2.037-.935 3.093" transform="translate(-237 -186) translate(237 186)"/>
                <path fill="#739AF0" d="M170.563 390.44l-25.108 23.64c-1.122 1.056-2.536 1.392-3.143.747l-1.932-2.052c-.606-.645-.186-2.034.936-3.09l25.108-23.64 4.138 4.395" transform="translate(-237 -186) translate(237 186)"/>
                <path fill="#1F4D84" d="M202.338 298.481c9.875-10.5 23.948-14.682 37.163-12.396 7.701 1.335 15.105 4.86 21.222 10.617 16.617 15.63 17.412 41.769 1.779 58.386-5.754 6.114-12.93 10.086-20.532 11.886-13.053 3.09-27.354-.225-37.854-10.104-16.614-15.633-17.412-41.772-1.778-58.389m-12.818 41.388c2.197 7.239 6.264 14.019 12.17 19.578 18.041 16.971 46.424 16.101 63.392-1.935 16.749-17.802 16.125-45.669-1.23-62.709-.231-.231-.465-.456-.705-.678-18.036-16.971-46.416-16.11-63.386 1.929-11.416 12.132-14.764 28.944-10.24 43.815" transform="translate(-237 -186) translate(237 186)"/>
                <path fill="#93B5F5" d="M218.375 365.639c-2.94-1.059-5.787-2.466-8.478-4.221-2.022-1.32-3.96-2.835-5.781-4.548-16.614-15.633-17.412-41.772-1.778-58.389.65-.693 1.319-1.356 2.006-1.992 7.875-7.317 17.967-11.01 28.08-11.01 2.367 0 4.734.204 7.077.609 4.314.747 8.538 2.181 12.492 4.314l-33.618 75.237" transform="translate(-237 -186) translate(237 186)"/>
                <path fill="#CCDFFC" d="M238.49 367.643l28.419-63.603c.114.171.228.345.339.519 3.678 5.754 5.796 12.237 6.339 18.834.921 11.247-2.742 22.827-11.085 31.695-5.754 6.114-12.93 10.086-20.532 11.886-1.149.273-2.313.495-3.48.669" transform="translate(-237 -186) translate(237 186)"/>
                <path fill="#D5A6A1" d="M232.409 368.09c-1.308 0-2.616-.063-3.921-.186-3.429-.324-6.828-1.08-10.113-2.265l33.618-75.237c1.56.84 3.081 1.788 4.545 2.844 1.449 1.047 2.85 2.196 4.185 3.456 2.391 2.247 4.455 4.713 6.186 7.338l-28.419 63.603c-2.013.297-4.047.447-6.081.447" transform="translate(-237 -186) translate(237 186)"/>
                <path fill="#698EBF" d="M232.412 368.09c-1.308 0-2.619-.063-3.924-.186 1.305.123 2.613.186 3.921.186 2.034 0 4.068-.15 6.081-.447 1.167-.174 2.331-.396 3.48-.669 7.602-1.8 14.778-5.772 20.532-11.886 8.343-8.868 12.006-20.448 11.085-31.695.921 11.247-2.742 22.827-11.082 31.695-5.757 6.114-12.933 10.086-20.535 11.889-3.135.741-6.348 1.113-9.558 1.113m-22.515-6.672c-2.025-1.32-3.96-2.835-5.781-4.548-16.615-15.633-17.412-41.772-1.779-58.389.651-.693 1.32-1.356 2.007-1.992-.687.636-1.355 1.299-2.006 1.992-15.634 16.617-14.836 42.756 1.778 58.389 1.821 1.713 3.759 3.228 5.781 4.548m57.351-56.859c-.111-.174-.225-.348-.339-.519-1.731-2.625-3.795-5.091-6.186-7.338-1.335-1.26-2.736-2.409-4.185-3.456 1.449 1.047 2.85 2.196 4.185 3.453 2.547 2.397 4.725 5.043 6.525 7.86" transform="translate(-237 -186) translate(237 186)"/>
                <path fill="#ED7D2B" d="M149.317 380.96c-31.527-22.464-28.905-52.443-28.905-52.443 11.523 6.498 22.957 20.868 28.203 33.333.308 7.14.569 14.049.702 19.11" transform="translate(-237 -186) translate(237 186)"/>
                <path fill="#FFB27D" d="M180.433 370.73c2.223-.513 3.716-2.193 4.027-2.487 0 0 .948.063-.156 2.085-.092.171-.297.606-.452.912-.063.126.025.273.165.282 1.283.099 2.573-.408 5.044.105.341.072.44.888.428 1.236-.023.591.02 1.251-.665 2.154-.398.525-1.51 1.092-3.984 2.085-.942.381-3.637.096-6.164-.774l-2.018-.933.626-3.753.507.108c.805.168 1.803-.816 2.642-1.02" transform="translate(-237 -186) translate(237 186)"/>
                <path fill="#F99746" d="M130.196 314.606s-28.327 5.394 8.335 46.416c5.863 6.561 37.541 15.102 37.541 15.102s3.213-2.733 1.594-4.947c0 0-21.812-15.84-26.611-18.357-2.16-1.134-8.38-25.281-11.899-31.095-3.519-5.817-8.96-7.119-8.96-7.119" transform="translate(-237 -186) translate(237 186)"/>
                <path fill="#FFB27D" d="M184.793 329.906s.926-1.77 1.107-2.703c.181-.936 1.348-3.66 1.828-4.14.193-.192.827.057.902.882.033.36-.143 1.014-.455 1.794-.507 1.266-.423 2.985-.6 3.558-.438 1.428-2.782.609-2.782.609M196.066 259.622c-.481.552-.543 1.17-.305 1.827l.005.012c.44 1.218 1.896 2.577 3.587 3.936.216.174.409.333.576.48l.13.117.099.09c1.577 1.455.983 1.788 3.817 4.74 3.228 3.363 5.454 3.423 6.087 3.117.537-.261-.552-2.043-1.755-4.047l-.177-.294-.48-.804c-1.41-2.412-1.047-3.546-.711-7.134.273-2.919 4.542-16.297 4.542-16.297l-6.192-1.069s-1.866 10.655-3.923 12.293c-1.099.876-2.329.885-3.385 1.533-.075.045-.148.093-.22.141-.6.396-1.212.807-1.695 1.359" transform="translate(-237 -186) translate(237 186)"/>
                <path fill="#233862" d="M196.066 259.622c-.481.552-.543 1.17-.305 1.827l.005.012c.54 1.215 1.959 2.571 3.593 3.924.214.177.402.342.57.492l.13.117.099.09c1.577 1.455.983 1.788 3.817 4.74 3.228 3.363 5.454 3.423 6.087 3.117.537-.261-.552-2.043-1.755-4.047-.63-.231-3.552-1.419-5.76-4.248-1.874-2.394-3.147-5.442-4.422-7.317-.14-.024-.224-.042-.364-.066-.6.396-1.211.807-1.695 1.359" transform="translate(-237 -186) translate(237 186)"/>
                <path fill="#FFB27D" d="M246.002 255.773c.381 1.911 3.108 1.593 6.15.852 3.045-.744 2.322.141 6.654-.339 4.332-.477 5.646-2.091 5.778-2.737.12-.571-2.022-.774-4.317-1.039-.288-.032-.579-.068-.87-.104-2.592-.326-4.491-2-6.843-3.375-2.232-1.302-5.559-6.605-5.559-6.605l-5.94.469s3.114 4.736 4.32 6.796c.708 1.211.672 2.813.582 4.05-.045.67-.09 1.357.045 2.032" transform="translate(-237 -186) translate(237 186)"/>
                <path fill="#233862" d="M252.152 256.625c3.045-.744 2.322.141 6.654-.339 4.332-.477 5.646-2.091 5.778-2.737.12-.571-2.022-.774-4.317-1.039l-.021.044s-2.601 1.842-6.207 1.926c-2.94.072-6.051-.772-8.082-.74-.045.671-.09 1.358.045 2.033.381 1.911 3.108 1.593 6.15.852M223.244 217.772l-12.816 34.457s-1.968.19-3.852-.353c-1.737-.502-3.726-1.815-3.726-1.815s2.019-20.953 5.781-32.98c.963-3.087 2.043-5.585 3.234-6.99 5.826-6.88 11.379 7.681 11.379 7.681" transform="translate(-237 -186) translate(237 186)"/>
                <path fill="#2A4E96" d="M217.607 194.033c-3.162-1.02-11.412-.02-20.361 1.597-2.472.447-4.964-.683-6.266-2.832l-22.518-1.767s-7.437 16.477-3.372 26.978c.597 1.544 1.909 2.507 3.934 2.54 0 0 13.608.024 17.96.026 11.199.004 23.705-7.69 25.322-8.013 2.646-.529 3.705 4.766 6.348 10.326 2.646 5.56 24.876 24.628 24.876 24.628s3.417.034 4.83-.495c1.518-.568 2.073-1.308 2.073-1.308s-24.621-49.03-32.826-51.68" transform="translate(-237 -186) translate(237 186)"/>
                <path fill="#233862" d="M188.61 126.67c-1.671-.997-3.302-1.15-4.3-1.121-.696.02-1.39-.026-2.078-.127-8.594-1.263-13.774 11.219-14.078 14.99-.56 6.926-4.223 7.98-9.381 12.316-10.343 8.693-7.315 18.799-1.662 22.556 3.391 2.254 9.371.003 9.371.003.085.059 16.356-9.089 24.376-13.501 12.023-1.705 2.581-32.24-2.248-35.117" transform="translate(-237 -186) translate(237 186)"/>
                <path fill="#FFB27D" d="M184.138 158.025c.036.023-3.946 1.38-6.607.2-2.504-1.107-4.4-5.227-4.362-5.23 1.14-.052 2.39-1.047 3.355-7.582l.486.174 8.154 2.938s-.592 2.617-.975 5.108c-.322 2.092-.496 4.096-.05 4.392" transform="translate(-237 -186) translate(237 186)"/>
                <path fill="#ED975D" d="M185.164 148.525s-.326 1.412-.801 4.05c-4.685-.845-6.695-4.455-7.353-6.987l8.154 2.937" transform="translate(-237 -186) translate(237 186)"/>
                <path fill="#FFB27D" d="M186.378 151.123s-11.158-1.502-10.116-8.436c1.042-6.934.303-11.798 7.472-11.132 7.168.665 8.151 3.519 8.366 5.918.215 2.399-2.793 13.862-5.722 13.65" transform="translate(-237 -186) translate(237 186)"/>
                <path fill="#233862" d="M191.695 133.671s-7.145 6.154-12.004 6.648c-4.86.495-6.698-1.065-6.698-1.065s2.864-2.377 4.59-6.214c.508-1.13 1.582-1.907 2.817-2.013 3.469-.298 10.046-.433 11.295 2.644" transform="translate(-237 -186) translate(237 186)"/>
                <path fill="#233862" d="M187.23 133.119s2.389 2.31 3.14 4.025c.727 1.654.943 5.61.364 7.18 0 0 3.726-7.238 1.619-10.756-2.234-3.73-5.123-.45-5.123-.45" transform="translate(-237 -186) translate(237 186)"/>
                <path fill="#F99746" d="M193.529 174.466c-.345 22.587-.099 17.867-2.57 20.01-.596.516-2.27.823-4.472.968-6.927.457-19.102-.688-19.564-1.969-1.596-4.43-.468-5.805-1.799-12.586-.138-.72-.31-1.501-.511-2.352-1.11-4.657-2.191-6.242 1.754-13.722 3.578-6.776 7.294-12.276 7.628-12.077 9.431 5.603 10.194.897 10.194.897s9.51 9.813 9.34 20.83" transform="translate(-237 -186) translate(237 186)"/>
                <path fill="#2A4E96" d="M217.685 232.716l-7.257 19.513s-1.968.19-3.852-.353c-1.737-.502-3.726-1.815-3.726-1.815s2.019-20.953 5.781-32.98l9.054 15.636" transform="translate(-237 -186) translate(237 186)"/>
                <path fill="#F99746" d="M184.19 153.633s9.705 1.65 10.844 5.829c1.138 4.18 4.881 29.547 4.881 29.547s-2.738 2.672-5.016.392c-2.28-2.28-7.166-23.736-7.166-23.736l-3.544-12.032" transform="translate(-237 -186) translate(237 186)"/>
                <path fill="#ED7D2B" d="M186.487 195.444c-6.927.457-19.102-.688-19.564-1.969-1.596-4.43-.468-5.805-1.799-12.586l3.345-9.406s-.557 10.476 2.531 13.232c3.086 2.756 12.647 5.323 14.148 7.626.724 1.105 1.2 2.213 1.339 3.103" transform="translate(-237 -186) translate(237 186)"/>
                <path fill="#FFB27D" d="M178.552 191.035s6.834-1.52 7.936-.912c1.103.606 3.797 2.816 4.134 3.584.337.769-2.455-.584-3.363-.827-.588-.159-2.136.379-2.903.634-3.225 1.074-5.2.52-5.2.52l-.604-2.999" transform="translate(-237 -186) translate(237 186)"/>
                <path fill="#F99746" d="M173.99 152.733s-9.176.562-12.353 4.991c-4.474 6.234-13.352 32.807-8.27 36.353 5.723 3.994 26.052 1.054 26.052 1.054s.678-3.162-.263-4.692c-.94-1.53-16.235-4.006-16.94-4.712-.707-.706 8.828-13.763 8.829-15.88 0-2.119 2.944-17.114 2.944-17.114" transform="translate(-237 -186) translate(237 186)"/>
                <path fill="#FFB27D" d="M186.819 192.025s1.43 1.847 1.9 2.068c.469.22.772.165.772.165l-.964-1.737-1.708-.496M186.488 190.123l4.162 2.022s-.177.29-.69.267c-.512-.024-1.805-.497-1.805-.497l-1.667-1.792" transform="translate(-237 -186) translate(237 186)"/>
                <path fill="#233862" d="M222.032 194.887L178.551 194.872 178.551 195.832 221.645 195.846 222.032 194.887" transform="translate(-237 -186) translate(237 186)"/>
                <path fill="#233862" d="M188.718 195.835L221.645 195.846 231.56 171.219 198.683 171.207 188.718 195.835" transform="translate(-237 -186) translate(237 186)"/>
                <path fill="#FFF" d="M213.338 183.528c.249-.866-.252-1.568-1.119-1.568-.864 0-1.767.701-2.016 1.567-.249.866.252 1.568 1.116 1.568.867 0 1.77-.701 2.019-1.567" transform="translate(-237 -186) translate(237 186)"/>
                <path fill="#163560" d="M436.181 288.722c-4.434-1.473-7.506.384-7.506.384-12.771.525-13.245 13.617-11.745 18.489 2.106 6.843-5.346 12.237 2.916 15.006 9.588 3.213 17.634-.597 17.085 1.056 30.321 2.391 9.339-31.587-.75-34.935" transform="translate(-237 -186) translate(237 186)"/>
                <path fill="#F99746" d="M422.936 352.394s-1.215 2.403-3.414 5.163c-2.655 3.324-16.578-4.563-15.381-5.163 1.2-.6 8.199-20.76 9.864-23.292 1.668-2.535 7.344-3.849 7.344-3.849l1.587 27.141" transform="translate(-237 -186) translate(237 186)"/>
                <path fill="#1F447F" d="M469.928 488.354s3.843 3.51 3.093 6c-.75 2.493-4.218 4.155-4.686 7.2-.471 3.045-2.346 4.707-4.032 4.707h-8.046s-1.242-2.142 1.758-2.79c3-.645 4.131-4.224 3.945-7.548-.189-3.321.279-7.752.279-7.752l6.375-1.476 1.314 1.659" transform="translate(-237 -186) translate(237 186)"/>
                <path fill="#1C3154" d="M437.396 489.845s1.383 14.859-.303 15.69l-21.594-.045s0-2.493 3.468-3.045c3.468-.555 9.561-2.586 10.593-7.11 1.032-4.521 7.836-5.49 7.836-5.49" transform="translate(-237 -186) translate(237 186)"/>
                <path fill="#F99746" d="M454.007 342.371s.324 4.536 0 9.981c-.213 3.609-3.864 8.442-4.38 9.636-1.302 3-2.766 3.489-2.766 3.489l-11.337 2.778-3.987.975-12.573-3.753s-5.724-15.984-3.426-24.981c2.298-8.997 5.811-15.243 5.811-15.243s8.544-1.92 23.616-.852l9.042 17.97" transform="translate(-237 -186) translate(237 186)"/>
                <path fill="#ED7D2B" d="M455.087 352.478c-.213 3.609-4.944 8.316-5.46 9.51-1.302 3-2.766 3.489-2.766 3.489l-11.337 2.778-2.049-5.868s16.566-4.35 13.902-19.683l7.71 9.774" transform="translate(-237 -186) translate(237 186)"/>
                <path fill="#233862" d="M419.765 367.901s-6.225 19.38-6.627 25.977c-.399 6.597 11.901 93.726 12.396 96.765.468 2.868 4.026 4.692 4.026 4.692s1.635.966 3.972.306c3.24-.915 4.266-2.01 4.266-2.01s4.845-62.139 1.845-84.336c-2.997-22.197-3.033-41.394-3.033-41.394h-16.845" transform="translate(-237 -186) translate(237 186)"/>
                <path fill="#2A4E96" d="M446.141 367.325s9.498 12.741 10.383 21.354c.885 8.616 1.389 38.871 3.276 47.268 1.884 8.397 8.814 24.555 8.814 50.748 0 0-.72 1.5-2.943 2.298-.711.258-1.665.504-2.589.717-1.836.42-3.717-.474-4.554-2.16-4.686-9.435-19.611-39.858-20.376-46.173-.54-4.47-5.253-34.05-15.531-51.408-2.469-4.167 1.515-20.739 1.515-20.739l22.005-1.905" transform="translate(-237 -186) translate(237 186)"/>
                <path fill="#233862" d="M418.769 364.91s2.499 1.977 7.464 2.079c5.931.117 20.628-1.512 20.628-1.512s.651 1.824.627 3.75c0 0-17.949 4.527-28.35.66 0 0-1.341-2.523-.369-4.977" transform="translate(-237 -186) translate(237 186)"/>
                <path fill="#FFF" d="M424.811 366.869c-.996 0-1.809.972-1.809 2.166s.813 2.166 1.809 2.166c.999 0 1.809-.972 1.809-2.166s-.81-2.166-1.809-2.166zm0 5.229c-1.491 0-2.706-1.374-2.706-3.063s1.215-3.063 2.706-3.063c1.494 0 2.706 1.374 2.706 3.063s-1.212 3.063-2.706 3.063z" transform="translate(-237 -186) translate(237 186)"/>
                <path fill="#B5453C" d="M437.777 377.669L410.801 377.921 397.529 346.727 424.505 346.475 437.777 377.669" transform="translate(-237 -186) translate(237 186)"/>
                <path fill="#FFB27D" d="M434.249 363.572l-1.977-2.43s-1.338-1.194-2.31-1.395c-.969-.204-3.021-1.386-3.219-1.053-.198.333 1.575 2.709 1.575 2.709l.09.015c-2.037 1.53-7.179.18-7.812.804-.771.756 1.059 2.394 2.04 3.315.981.918 3.786 2.451 5.973 1.77 1.596-.498 4.113-1.005 4.113-1.005l1.527-2.73M399.557 352.214s1.695-1.926 2.775-1.002c1.077.924-.282 5.472-1.311 5.01-1.026-.462-2.055-3.444-1.464-4.008" transform="translate(-237 -186) translate(237 186)"/>
                <path fill="#F99746" d="M444.965 324.401s7.722.852 13.266 10.92c4.368 7.941 11.841 22.578 9.021 26.715-1.239 1.815-13.101 8.274-35.982 4.581 0 0 .36-2.889 2.205-4.23 0 0 19.257-6.18 19.224-7.41-.063-2.328-2.601-4.338-13.359-15.096-2.925-2.928 5.625-15.48 5.625-15.48" transform="translate(-237 -186) translate(237 186)"/>
                <path fill="#FFB27D" d="M439.022 324.809c.267-.357-.075-1.491-.501-3.603-.384-1.914-1.035-4.875-1.02-8.205l-.57.096-9.57 1.611s.216 2.559.222 4.968l.003.06c.009 2.094-.567 5.259.141 5.673 3.624 2.124 10.275.771 11.295-.6" transform="translate(-237 -186) translate(237 186)"/>
                <path fill="#E8945B" d="M427.361 314.708s.189 3.609.195 6.018c5.358-.129 8.214-5.328 9.375-7.629l-9.57 1.611" transform="translate(-237 -186) translate(237 186)"/>
                <path fill="#FFB27D" d="M426.782 319.01s12.546-1.785 11.313-9.582c-1.233-7.797-.444-13.278-8.505-12.468-8.064.813-9.147 4.032-9.369 6.735-.219 2.703 3.267 15.579 6.561 15.315" transform="translate(-237 -186) translate(237 186)"/>
                <path fill="#163560" d="M423.86 297.677s4.881 8.601 10.356 9.114c5.472.516 7.53-1.257 7.53-1.257s-4.545-2.562-6.273-8.022c0 0-9.723-4.599-11.613.165" transform="translate(-237 -186) translate(237 186)"/>
                <path fill="#163560" d="M424.826 298.286s-2.388 1.353-3.138 3.372c-.735 1.977-1.224 4.515-.552 7.428 0 0-3.573-5.805-1.233-9.783 2.484-4.221 4.923-1.017 4.923-1.017" transform="translate(-237 -186) translate(237 186)"/>
                <path fill="#233862" d="M701.258 507.383H5.755c-.478 0-.87-.393-.87-.87v-.501c0-.48.392-.87.87-.87h695.503c.48 0 .87.39.87.87v.501c0 .477-.39.87-.87.87" transform="translate(-237 -186) translate(237 186)"/>
            </g>
        </g>
    </g>
</svg>
