<svg xmlns="http://www.w3.org/2000/svg" width="125" height="160" viewBox="0 0 125 160">
    <defs>
        <radialGradient id="iwc5c593ca" cx="50%" cy="50%" r="50%" fx="50%" fy="50%" gradientTransform="matrix(0 1 -1.0824 0 1.041 0)">
            <stop offset="0%" stop-opacity=".151"/>
            <stop offset="100%" stop-opacity="0"/>
        </radialGradient>
    </defs>
    <g fill="none" fill-rule="evenodd">
        <g>
            <g>
                <g transform="translate(-1078 -766) translate(999.5 766) translate(78.5)">
                    <ellipse cx="62.5" cy="152.5" fill="url(#iwc5c593ca)" rx="58.75" ry="7.5"/>
                    <g>
                        <path fill="#3C89F9" d="M62.5 0C97.018 0 125 27.981 125 62.499 125 97.018 97.016 125 62.498 125 27.982 125.002 0 97.019 0 62.5-.002 27.982 27.981 0 62.5 0"/>
                        <path fill="#4B7EC7" d="M124.867 65.589c-2.078 32.639-29.204 58.468-62.368 58.468-2.761 0-5.48-.18-8.146-.527L28.507 95.72l6.362-63.32 61.704-4.747 28.294 37.935"/>
                        <path fill="#FFD504" d="M43.633 50.342h37.814V42.78H43.633v7.562zm0 15.126h37.814v-7.562H43.633v7.562zm-.001 15.126h26.47v-7.563h-26.47v7.563zM28.507 95.72h68.067V27.653H28.507v68.066z"/>
                        <path fill="#EC9F07" d="M81.447 42.779L81.447 42.779 81.447 50.342 73.884 50.342 66.321 57.905 81.447 57.905 81.447 65.468 58.758 65.468 51.195 73.031 70.102 73.031 70.102 80.594 43.633 80.594 28.507 95.72 96.573 95.72 96.573 27.653z"/>
                    </g>
                </g>
            </g>
        </g>
    </g>
</svg>
