<svg xmlns="http://www.w3.org/2000/svg" width="80" height="80" viewBox="0 0 80 80">
    <g fill="none" fill-rule="evenodd">
        <g fill="#B2B2B2">
            <g>
                <g>
                    <g>
                        <path d="M47.871 58.398l9.374-24.55 9.617 24.55H47.871zm9.51 7.136c-3.572 0-6.273-1.496-8.088-2.993h16.39c-1.734 1.487-4.438 2.993-8.301 2.993zM40.016 30.1c-1.228 0-2.227-.995-2.227-2.217 0-1.223 1-2.218 2.227-2.218 1.227 0 2.226.995 2.226 2.218 0 1.222-.999 2.217-2.226 2.217zm-7.857 28.298H13.167l9.618-24.55 9.373 24.55zm-9.51 7.136c-3.573 0-6.274-1.496-8.088-2.993h16.39c-1.735 1.487-4.439 2.993-8.302 2.993zm35.906-39.74l-12.509.017c-.64-1.841-2.103-3.299-3.951-3.936v-5.501c.8-.619 1.315-1.583 1.315-2.67 0-1.867-1.52-3.381-3.394-3.381-1.875 0-3.395 1.514-3.395 3.382 0 1.086.516 2.05 1.315 2.669v5.501c-1.848.637-3.31 2.095-3.95 3.936l-12.51-.017L7.742 60.85l.54.878c.2.324 5.003 7.948 14.366 7.948 10.03 0 14.255-7.733 14.43-8.062l.441-.83-11.771-30.83h8.237c.865 2.491 3.238 4.289 6.03 4.289 2.792 0 5.165-1.798 6.03-4.29h8.237l-11.8 30.906.534.868c.2.325 5.002 7.95 14.366 7.95 10.03 0 14.256-7.734 14.43-8.063l.446-.839-13.704-34.982z" transform="translate(-359 -4773) translate(268 4709) translate(91 64)"/>
                    </g>
                </g>
            </g>
        </g>
    </g>
</svg>
