<svg xmlns="http://www.w3.org/2000/svg" width="80" height="80" viewBox="0 0 80 80">
    <g fill="none" fill-rule="evenodd">
        <g fill="#FFF">
            <g>
                <g>
                    <g>
                        <path d="M49.032 56.774h2.58V34.84h-2.58v21.935zM37.42 23.535h6.452v-5.16h-6.452v5.16zM40 56.775h2.58V34.838H40v21.935zm-9.032 0h2.58V34.838h-2.58v21.935zm27.897-32H48.542V14.193H33.058v10.58H22.735v39.678h5.162c0 1.454 1.161 2.645 2.58 2.645 1.42 0 2.581-1.19 2.581-2.645h15.484c0 1.454 1.161 2.645 2.58 2.645 1.42 0 2.581-1.19 2.581-2.645h5.162V24.774z" transform="translate(-1202 -5074) translate(268 5010) translate(843) translate(91 64)"/>
                    </g>
                </g>
            </g>
        </g>
    </g>
</svg>
