<svg xmlns="http://www.w3.org/2000/svg" width="80" height="80" viewBox="0 0 80 80">
    <g fill="none" fill-rule="evenodd">
        <g fill="#B2B2B2">
            <g>
                <g>
                    <g>
                        <g>
                            <path d="M18.065 37.42v30.967h-7.742V37.42h7.742zm10.245 0l20.722 8.445v5.63H38.71l-4.542-1.916-.852 2.677 5.394 2.055h23.225v5.63L41.29 68.387l-18.064-5.574V37.419h5.084zM66.323 7.741V22.66c2.81 2.145 4.645 5.586 4.645 9.427 0 2.64-.883 5.044-2.323 7v.07H68.6c-2.137 2.85-5.458 4.714-9.244 4.714-3.786 0-7.13-1.863-9.244-4.714h-.046v-.07c-1.44-1.956-2.323-4.36-2.323-7 0-3.841 1.835-7.282 4.645-9.427V7.742h13.936zm-4.646 4.75h-4.645v12.525l-1.858 1.412c-1.742 1.322-2.787 3.443-2.787 5.658h13.936c0-2.215-1.046-4.313-2.788-5.658l-1.858-1.412V12.492z" transform="translate(-921 -473) translate(0 231) translate(549 178) translate(281) translate(91 64)"/>
                        </g>
                    </g>
                </g>
            </g>
        </g>
    </g>
</svg>
