<svg xmlns="http://www.w3.org/2000/svg" width="125" height="160" viewBox="0 0 125 160">
    <defs>
        <radialGradient id="h0mg486bla" cx="50%" cy="50%" r="50%" fx="50%" fy="50%" gradientTransform="matrix(0 1 -1.0824 0 1.041 0)">
            <stop offset="0%" stop-opacity=".151"/>
            <stop offset="100%" stop-opacity="0"/>
        </radialGradient>
    </defs>
    <g fill="none" fill-rule="evenodd">
        <g>
            <g transform="translate(-898 -623) translate(898 623)">
                <g>
                    <path fill="#3C89F9" d="M62.49.274c34.372 0 62.236 27.864 62.236 62.236s-27.864 62.236-62.237 62.236C28.118 124.746.254 96.882.254 62.51S28.118.274 62.489.274"/>
                    <path fill="#4B7EC7" d="M124.593 66.526c-2.07 32.5-29.08 58.22-62.104 58.22-2.749 0-5.456-.18-8.112-.526L27.48 97.433l14.264-22.476 16.597-24.894 33.095-16.585 33.157 33.048"/>
                    <path fill="#FFD504" d="M62.49 37.616L74.937 25.169 91.534 33.467 87.385 62.51 62.49 37.616"/>
                    <path fill="#EC9F07" d="M91.534 33.467L99.832 50.063 87.385 62.51 74.937 50.063 91.534 33.467"/>
                    <path fill="#FFF" d="M41.744 50.063c8.299 0 12.448-4.15 20.746-12.447l16.596 8.298-4.149 12.447-8.046-.251c-1.127-1.127-2.683-1.823-4.402-1.823-3.437 0-6.223 2.786-6.223 6.223 0 .71.119 1.391.338 2.027L33.446 91.554v2.99l-6.475 3.485c-2.43-2.43-2.43-6.371 0-8.802 1.584-1.584 3.81-2.135 5.842-1.654l8.931-37.51"/>
                    <path fill="#CFCFCF" d="M66.89 58.11l12.196-12.196 8.299 16.596c-8.299 8.298-12.448 12.447-12.448 20.745l-37.51 8.932c.481 2.031-.07 4.257-1.655 5.842-2.43 2.43-6.37 2.43-8.801 0l6.475-6.475 27.017-23.158c.636.219 1.317.338 2.026.338 3.438 0 6.224-2.787 6.224-6.224 0-1.718-.696-3.274-1.822-4.4"/>
                </g>
                <ellipse cx="62.75" cy="152.5" fill="url(#h0mg486bla)" rx="58.75" ry="7.5"/>
            </g>
        </g>
    </g>
</svg>
