<svg width="632" height="1110" viewBox="0 0 632 1110" xmlns="http://www.w3.org/2000/svg">
    <defs>
        <linearGradient x1="52.921%" y1="17.641%" x2="50%" y2="70.912%" id="qr6he6xhha">
            <stop stop-color="#F5E2E5" offset="0%"/>
            <stop stop-color="#FCEBEE" offset="100%"/>
        </linearGradient>
    </defs>
    <g fill="none" fill-rule="evenodd">
        <path fill="#EBF3FF" d="M0 0h632v1110H0z"/>
        <g transform="translate(86 427)" fill-rule="nonzero">
            <circle fill="#3C89F9" cx="109.884" cy="77" r="77"/>
            <circle fill="#D6E8FF" cx="247.384" cy="211.5" r="200.5"/>
            <ellipse fill="#3F3D56" cx="238.384" cy="412" rx="220.5" ry="12"/>
            <ellipse fill="#000" opacity=".1" cx="193.384" cy="412.5" rx="165.5" ry="8.5"/>
            <ellipse fill="#3F3D56" cx="317.884" cy="465" rx="141" ry="7"/>
            <ellipse fill="#3F3D56" cx="68.884" cy="440.5" rx="68" ry="3.5"/>
            <circle fill="#2F2E41" cx="363.384" cy="77.5" r="25.5"/>
            <path d="m380.323 356-14.359 38.536s-11.966 9.437-4.786 12.583c7.18 3.146 21.538-3.146 21.538-3.146l11.168-28.312L392.288 356h-11.965z" fill="#2F2E41"/>
            <path d="m380.323 356-14.359 38.536s-11.966 9.437-4.786 12.583c7.18 3.146 21.538-3.146 21.538-3.146l11.168-28.312L392.288 356h-11.965z" fill="#000" opacity=".1"/>
            <path d="m382.52 125 12.152 1.236s6.105 43.55 3.615 46.692c-2.49 3.143-14.938 15.715-19.917 12.572-4.98-3.143 4.15-60.5 4.15-60.5z" fill="#3C89F9"/>
            <path d="M268.21 205s-16.362 7-19.478 7.779c-3.117.777-7.791 8.556-2.338 10.112 5.454 1.555 26.49-14.002 26.49-14.002L268.209 205z" fill="#F4DEE2"/>
            <path d="m386.884 370.39 8.621 32.743s.784 11.98 4.703 12.778c3.919.799 15.676-3.993 15.676-5.59 0-1.598-4.703-14.375-4.703-14.375s0-9.584-4.703-13.577c-4.702-3.993-8.94-17.369-8.94-17.369l-10.654 5.39zM397.284 296.869c1.616 3.74 1.416 30.881-.352 48.943-.856 8.777-2.08 15.41-3.648 16.188l-11.464-2.844-4.536-1.127-.12-9.881-.68-54.457-13.6-56.394V223l34.4 3.177 5.456 8.507.144.23s-8 56.395-5.6 61.955z" fill="#2F2E41"/>
            <path d="M390.182 314.343c1.718 2.55 4.585 17.816 6.873 31.47-.86 8.776-2.088 15.409-3.661 16.187l-11.506-2.844c-.176-.365-.353-.746-.538-1.127-1.47-3.05-2.85-6.418-4.135-9.881l-.682-54.457-13.65-56.394V223l34.525 3.177 5.476 8.507-31.971-2.153 7.226 30.978 8.831 32.565s0 13.503 3.212 18.269z" fill="#000" opacity=".1"/>
            <path d="M333.674 191.294s-11.138 24.547 4.773 58.596a690.278 690.278 0 0 1 26.252 64.93s5.568 26.131 13.524 42.76c7.955 16.628 6.364 17.42 6.364 17.42l12.728-7.127s-7.16-49.093-10.342-53.844c-3.182-4.751-3.182-18.213-3.182-18.213l-8.75-32.465-7.16-30.882 35.003 2.376s0-45.135-15.91-53.845l-53.3 10.294z" fill="#2F2E41"/>
            <path d="M347.322 89s0 12.596-3.966 13.383c-3.967.787-11.9.787-14.281 4.723-2.38 3.937 18.247 55.894 18.247 55.894l21.421-13.383 7.14-35.426s-10.313-6.297-10.313-9.446v-14.17L347.322 89z" fill="#E6CED1"/>
            <path d="M347.322 89s0 12.596-3.966 13.383c-3.967.787-11.9.787-14.281 4.723-2.38 3.937 18.247 55.894 18.247 55.894l21.421-13.383 7.14-35.426s-10.313-6.297-10.313-9.446v-14.17L347.322 89z" fill="url(#qr6he6xhha)"/>
            <circle fill="#FBE8EB" cx="358.884" cy="84" r="19"/>
            <path d="M349.5 147.716S342.367 103 340.782 103s-23.777 4.707-25.362 5.491c-1.585.785-6.536 8.376-6.536 8.376l10.499 30.849s4.755 21.965 7.925 25.887c3.17 3.923 9.511 14.906 6.34 16.475-3.17 1.569-6.34 3.922-3.17 3.922s29.326-4.707 30.91-2.353c1.586 2.353 27.74-8.63 27.74-9.414 0-.785-3.17-37.655-3.17-37.655l7.926-18.044-23.777-16.474-20.607 37.656z" fill="#3C89F9"/>
            <path d="m317.264 113-8.028 3.968s-22.479 50.794-24.085 51.588c-1.605.793-9.633 15.873-10.436 19.047-.803 3.175-2.409 13.492-4.817 15.08a41.81 41.81 0 0 1-4.014 2.38S270.7 213 273.109 213c2.409 0 10.437-11.111 10.437-11.111s17.662 11.111 22.479 2.38c4.817-8.73 16.859-64.285 16.859-64.285L317.264 113z" fill="#3C89F9"/>
            <path d="M377.884 136.453s-10.911-26.293-17.146-23.2c-6.234 3.093 4.676 21.654 11.69 24.747l5.456-1.547z" fill="#F4DEE2"/>
            <path d="M367.467 136.525 378.414 134l2.317 12.08s10.143 18.312 7.802 26.274c-2.34 7.962-16.385 20.702-21.066 13.536-4.681-7.166-8.583-18.313-5.462-24.682 3.121-6.37 7.803-21.498 5.462-24.683z" fill="#000" opacity=".1"/>
            <path d="M370.467 135.525 381.414 133l2.317 12.08s10.143 18.312 7.802 26.274c-2.34 7.962-16.385 20.702-21.066 13.536-4.681-7.166-8.583-18.313-5.462-24.682 3.121-6.37 7.803-21.498 5.462-24.683z" fill="#3C89F9"/>
            <ellipse fill="#2F2E41" transform="rotate(-64.899 364.692 72.448)" cx="364.692" cy="72.448" rx="9.1" ry="18.985"/>
            <circle fill="#2F2E41" cx="378.884" cy="57" r="11"/>
            <path d="M369.219 52c0-5.618 4.168-10.333 9.665-10.935-4.125-.458-8.144 1.52-10.348 5.093a11.15 11.15 0 0 0 0 11.684c2.204 3.572 6.223 5.55 10.348 5.093-5.497-.602-9.664-5.317-9.665-10.935z" fill="#2F2E41"/>
            <path fill="#3F3D56" d="M52.884 220h277v192h-277z"/>
            <path fill="#F2F2F2" d="M73.884 239h37v37h-37z"/>
            <path fill="#3C89F9" d="M73.884 298h37v37h-37z"/>
            <path fill="#F2F2F2" d="M73.884 357h37v37h-37zM127.884 251h173v3h-173zM127.884 261h54v3h-54zM127.884 310h173v3h-173zM127.884 321h54v3h-54zM127.884 370h173v3h-173zM127.884 380h54v3h-54z"/>
            <path d="M89.884 420.39c0 16.018-9.401 21.61-21 21.61a36.574 36.574 0 0 1-2.4-.084c-10.469-.75-18.6-6.63-18.6-21.525 0-15.412 19.448-34.862 20.913-36.305l.002-.002c.056-.057.085-.084.085-.084s21 20.376 21 36.39z" fill="#3C89F9"/>
            <path d="m67.513 439.559 7.853-10.87-7.872 12.064-.02 1.247a34.277 34.277 0 0 1-1.632-.074l.845-16.026-.006-.125.014-.022.081-1.515-7.892-12.093 7.916 10.958.02.32.638-12.108-6.756-12.495 6.839 10.371.666-25.105.002-.086v.084l-.11 19.796 6.726-7.848-6.754 9.553-.178 10.842 6.282-10.405-6.308 12-.099 6.028 9.116-14.483-9.151 16.586-.22 13.406z" fill="#3F3D56"/>
        </g>
    </g>
</svg>
